<svg id="SvgjsSvg1084" width="288" height="288" xmlns="http://www.w3.org/2000/svg" version="1.1" xmlns:xlink="http://www.w3.org/1999/xlink" xmlns:svgjs="http://svgjs.com/svgjs"><g id="SvgjsG1119" transform="matrix(0.7916,0,0,0.7916,30.009600000000006,30.009600000000006)" fill="#fbd8ae"><circle id="SvgjsCircle1120" r="144" cx="144" cy="144"></circle><rect id="SvgjsRect1121" width="164" height="164" x="124" y="124" rx="20" ry="20"></rect></g><defs id="SvgjsDefs1085"></defs><g id="SvgjsG1086" transform="matrix(0.4652,0,0,0.4652,76.98275692443848,76.97545209102631)"><svg xmlns="http://www.w3.org/2000/svg" viewBox="0 0 512 512" width="288" height="288"><path fill="#feddc2" d="M0 0 C5.66921318 -0.29798755 10.0945126 0.64933675 15.4375 2.5 C16.21738281 2.76699707 16.99726563 3.03399414 17.80078125 3.30908203 C30.07188343 7.65509739 41.34735601 13.1271926 51 22 C52.09248047 22.99 52.09248047 22.99 53.20703125 24 C63.72481697 33.99092075 67.62816974 45.89385162 70 60 C70.52207031 59.55269531 71.04414063 59.10539062 71.58203125 58.64453125 C83.79783387 48.61088602 96.28570555 45.63244623 111.859375 46.12109375 C129.45899378 47.95281373 144.78923678 55.41943889 160 64 C160 65.65 160 67.3 160 69 C155.90534441 70.48064645 152.09352328 71.38211833 147.7734375 71.89453125 C146.5865332 72.0426123 145.39962891 72.19069336 144.17675781 72.34326172 C142.92217773 72.49811035 141.66759766 72.65295898 140.375 72.8125 C122.09867504 75.21464816 105.22591413 79.50681216 88 86 C89.03898437 86.03738281 90.07796875 86.07476562 91.1484375 86.11328125 C108.20556318 86.8570334 121.27153357 91.1394983 133.36328125 103.88671875 C143.42601939 115.41486845 149.2404253 129.20202447 153.9375 143.625 C154.16147461 144.30030762 154.38544922 144.97561523 154.61621094 145.67138672 C155.67782338 149.09435081 156.38888609 151.60111107 155 155 C153.22607422 155.6496582 153.22607422 155.6496582 151 156 C149.20751953 155.07885742 149.20751953 155.07885742 147.3828125 153.60546875 C146.35982056 152.79770996 146.35982056 152.79770996 145.31616211 151.97363281 C144.23153687 151.08949707 144.23153687 151.08949707 143.125 150.1875 C141.58844437 148.97633455 140.05066785 147.76671651 138.51171875 146.55859375 C137.74778809 145.9538623 136.98385742 145.34913086 136.19677734 144.72607422 C122.47829886 133.9470519 107.68710947 125.57616082 92 118 C91.67 118.33 91.34 118.66 91 119 C91.70125 119.680625 92.4025 120.36125 93.125 121.0625 C94.08698848 122.03807589 95.04504098 123.01754216 96 124 C96.73863281 124.74443359 96.73863281 124.74443359 97.4921875 125.50390625 C106.76126634 135.46936667 109.50991255 148.27042266 109.24609375 161.5234375 C107.90746085 180.43428321 100.077526 196.70079777 91 213 C89.35 212.67 87.7 212.34 86 212 C83.81128527 205.39528815 83.07685275 198.69376862 82.1875 191.8125 C79.00334463 168.62051016 72.82501341 147.28482942 62.48901367 126.25317383 C60 121.18200124 60 121.18200124 60 119 C59.34 119 58.68 119 58 119 C57.64421875 120.16015625 57.64421875 120.16015625 57.28125 121.34375 C55.94332816 125.16172207 54.38320256 128.82420742 52.77636719 132.53466797 C42.67976904 155.99168424 35.01277176 179.96063356 30 205 C29.81244141 205.91104492 29.62488281 206.82208984 29.43164062 207.76074219 C21.82120162 245.30465878 20.73255053 283.85379663 19 322 C19.59181564 322.12588501 20.18363129 322.25177002 20.79338074 322.38146973 C50.99677554 328.92599725 81.30537636 344.83654406 102 368 C102.50917969 368.97324219 103.01835937 369.94648438 103.54296875 370.94921875 C107.36790143 375.69845948 112.40060771 377.3682979 117.9375 379.6875 C119.00291016 380.15994141 120.06832031 380.63238281 121.16601562 381.11914062 C132.25657367 385.89136023 142.59447634 388.74662799 154.6875 387.5625 C156.41977653 387.40871756 158.15286264 387.26371723 159.88671875 387.12890625 C161.00373169 387.02171265 161.00373169 387.02171265 162.14331055 386.91235352 C164 387 164 387 166 389 C166 418.37 166 447.74 166 478 C7.6 478 -150.8 478 -314 478 C-314 389 -314 389 -312 387 C-310.14331055 386.91235352 -310.14331055 386.91235352 -307.88671875 387.12890625 C-307.04947266 387.19400391 -306.21222656 387.25910156 -305.34960938 387.32617188 C-303.61714155 387.47997129 -301.88529943 387.64105009 -300.15429688 387.81054688 C-287.98710162 388.72239572 -277.1317565 384.6769673 -266.125 379.875 C-265.04992187 379.43929688 -263.97484375 379.00359375 -262.8671875 378.5546875 C-255.39222919 375.31431148 -251.48918496 371.71193985 -247 365 C-239.51103604 356.30722627 -230.56153262 350.15988148 -221 344 C-220.05898437 343.37351562 -219.11796875 342.74703125 -218.1484375 342.1015625 C-200.07699583 330.74693985 -177.0705755 322.27692576 -156 319 C-159.07258954 273.07398995 -165.03186951 229.06053019 -185 187 C-199.19320449 204.19478852 -201.97317522 231.63116552 -204.61450195 252.74121094 C-205 255 -205 255 -206 256 C-208.25 256.5625 -208.25 256.5625 -211 256 C-221.20593301 243.17716109 -225.42173973 225.06565893 -224 209 C-222.02350278 199.56671779 -217.82574291 192.66370747 -211 186 C-215.70340614 187.41174212 -219.91769204 189.35638511 -224.1875 191.75 C-224.86441895 192.12906494 -225.54133789 192.50812988 -226.23876953 192.89868164 C-235.87363509 198.46682648 -246.10654592 205.10654592 -254 213 C-256.625 212.625 -256.625 212.625 -259 212 C-259.26858582 206.66271762 -258.47437693 202.37677065 -256.5625 197.4375 C-256.29880615 196.74857666 -256.0351123 196.05965332 -255.76342773 195.34985352 C-249.49382097 179.76244324 -240.53697241 168.76903184 -225 162 C-221.68455701 160.89485234 -218.79589889 160.67892369 -215.3125 160.4375 C-214.13300781 160.35371094 -212.95351562 160.26992187 -211.73828125 160.18359375 C-210.83464844 160.12300781 -209.93101562 160.06242188 -209 160 C-222.16065562 155.1256831 -235.16014689 152.21792518 -249 150 C-250.35446579 149.77260793 -251.70866908 149.54364186 -253.0625 149.3125 C-255.7066828 148.86348783 -258.35181458 148.42460357 -261 148 C-261.495 145.525 -261.495 145.525 -262 143 C-255.64158072 138.72029472 -249.17906866 135.67491547 -242 133 C-240.72189453 132.51466797 -240.72189453 132.51466797 -239.41796875 132.01953125 C-228.50223955 128.44802538 -214.97898825 128.1429154 -204.34765625 132.7109375 C-200.59345129 134.7723146 -197.24418727 137.21130034 -194 140 C-193.79246094 138.96101562 -193.58492188 137.92203125 -193.37109375 136.8515625 C-191.45908862 127.94099804 -189.24445635 120.91885763 -183 114 C-182.06414062 112.95972656 -182.06414062 112.95972656 -181.109375 111.8984375 C-172.52298076 103.41036075 -158.70159103 96.78037804 -147 94 C-143.3125 94.25 -143.3125 94.25 -141 95 C-140.37018321 98.83681494 -141.00720368 100.01011684 -143.30859375 103.2421875 C-144.34300753 104.460441 -145.38655938 105.67097457 -146.4375 106.875 C-155.41103484 117.61484287 -162.00949382 129.38469875 -168 142 C-167.25363281 141.39285156 -166.50726563 140.78570312 -165.73828125 140.16015625 C-163.59229637 138.46724664 -161.48748826 136.90465041 -159.1875 135.4375 C-158.58292969 135.04433594 -157.97835937 134.65117187 -157.35546875 134.24609375 C-150.96840743 130.86720061 -145.28749363 129.44050714 -138.0625 129.5 C-137.24056152 129.50572021 -136.41862305 129.51144043 -135.57177734 129.51733398 C-122.82569101 129.88056442 -108.16560385 134.0030583 -98 142 C-97.15625 144.71875 -97.15625 144.71875 -97 147 C-100.51506335 148.54139445 -103.67038079 149.37619303 -107.47265625 149.859375 C-108.52839844 150.00270264 -109.58414063 150.14603027 -110.671875 150.29370117 C-112.35023438 150.51956909 -112.35023438 150.51956909 -114.0625 150.75 C-126.04878217 152.46268636 -139.04375099 154.5218755 -150 160 C-149.20078125 160.01417969 -148.4015625 160.02835938 -147.578125 160.04296875 C-135.34596275 160.57417767 -126.09823866 163.88835488 -117.2421875 172.50390625 C-108.25429424 182.5095923 -99.74330216 198.3950144 -100 212 C-102.0625 212.83984375 -102.0625 212.83984375 -105 213 C-107.60643355 211.52043775 -109.75809345 209.53869267 -112 207.5625 C-127.73247419 194.37433538 -145.73573274 185.76298744 -165 179 C-164.68885254 179.61593018 -164.37770508 180.23186035 -164.05712891 180.86645508 C-144.33205419 220.19716828 -126.44335555 268.30730997 -127 313 C-126.12045654 312.86368164 -126.12045654 312.86368164 -125.22314453 312.72460938 C-107.99876588 310.19208999 -90.9519019 309.6900795 -73.5625 309.6875 C-71.97758759 309.68266602 -71.97758759 309.68266602 -70.36065674 309.67773438 C-58.47313934 309.65563049 -46.74053346 309.98150947 -34.91957092 311.30436707 C-29.90587997 311.86467722 -25.04646352 312.09072863 -20 312 C-19.90501221 310.96109619 -19.81002441 309.92219238 -19.7121582 308.85180664 C-13.54188928 241.95322897 -3.30073228 168.10330624 33 110 C3.27878475 119.74003998 -22.46171192 133.92418769 -45.88671875 154.76953125 C-48 156 -48 156 -50.76953125 155.69921875 C-51.50558594 155.46847656 -52.24164063 155.23773438 -53 155 C-52.58646221 148.18553884 -51.43985036 142.24684619 -49 135.875 C-48.69094727 135.06023193 -48.38189453 134.24546387 -48.06347656 133.40600586 C-40.66978635 114.56088911 -30.16691961 98.45461923 -11.23828125 89.7265625 C-2.69520238 86.4398664 5.95682455 86.21429326 15 86 C-8.86034408 77.58194563 -32.0026712 73.21612132 -57 70 C-57.33 68.35 -57.66 66.7 -58 65 C-41.3666004 52.16018276 -18.42020681 44.72916561 2.48046875 46.25390625 C17.89366205 48.25960901 27.48272023 54.97923343 38 66 C29.28035406 44.66350303 16.44754993 22.44754993 0 6 C-0.04080783 4.00041636 -0.04254356 1.99954746 0 0 Z " transform="translate(333 21)" class="colorFEDDC2 svgShape"></path><path fill="#6bd9e7" d="M0 0 C0.85062012 0.36432129 1.70124023 0.72864258 2.57763672 1.10400391 C10.3073364 4.41557425 10.3073364 4.41557425 13.80517578 5.96459961 C14.66481934 6.34237549 15.52446289 6.72015137 16.41015625 7.109375 C17.17465088 7.44936523 17.93914551 7.78935547 18.72680664 8.13964844 C23.2122656 9.8372918 27.4815973 10.1587053 32.25 10.1875 C33.83554687 10.20876953 33.83554687 10.20876953 35.453125 10.23046875 C43.7906257 9.68871485 50.80523248 7.02148695 58.375 3.625 C60.2402968 2.81504934 62.10617593 2.00643833 63.97265625 1.19921875 C66.74134296 -0.00652424 69.49838285 -1.22730096 72.24609375 -2.48046875 C84.44718448 -7.62461203 97.00261239 -5.72127754 108.95947266 -0.86083984 C114.3490352 1.4128617 119.69036717 3.78487679 125.00390625 6.23046875 C136.54359661 11.41447767 148.43301369 11.62303284 160.3671875 7.48046875 C165.95960666 5.20140761 171.46754351 2.73915285 176.93457031 0.17407227 C188.22631755 -5.09921397 200.39290791 -7.40792305 212.5625 -3.625 C219.814564 -0.86278726 226.91289884 2.381849 233.99243164 5.55810547 C235.43283813 6.20030029 235.43283813 6.20030029 236.90234375 6.85546875 C238.19386353 7.43784302 238.19386353 7.43784302 239.51147461 8.03198242 C244.00119229 9.77844868 248.27080747 10.17874807 253.0625 10.25 C254.08472656 10.27578125 255.10695313 10.3015625 256.16015625 10.328125 C266.04801755 9.4831806 274.81219843 6.05848636 283.75 1.9375 C298.79695883 -4.94991246 312.90204623 -7.83891883 329 -2 C332.33893161 -0.55666404 335.63753768 0.97003974 338.9375 2.5 C351.51495865 8.28757989 361.53553881 10.50871473 375.375 9.33447266 C376.61830078 9.23271729 376.61830078 9.23271729 377.88671875 9.12890625 C378.63139404 9.05744385 379.37606934 8.98598145 380.14331055 8.91235352 C382 9 382 9 384 11 C384 40.37 384 69.74 384 100 C225.6 100 67.2 100 -96 100 C-96 11 -96 11 -94 9 C-92.14331055 8.91235352 -92.14331055 8.91235352 -89.88671875 9.12890625 C-88.64378052 9.23078247 -88.64378052 9.23078247 -87.37573242 9.3347168 C-86.48861572 9.40988525 -85.60149902 9.48505371 -84.6875 9.5625 C-70.10238102 10.46418167 -59.46403653 6.64665133 -46.30737305 0.58081055 C-30.48707485 -6.64394115 -16.0891227 -6.97531207 0 0 Z " transform="translate(115 399)" class="color6BD9E7 svgShape"></path><path fill="#79caa6" d="M0 0 C5.66921318 -0.29798755 10.0945126 0.64933675 15.4375 2.5 C16.21738281 2.76699707 16.99726563 3.03399414 17.80078125 3.30908203 C30.07188343 7.65509739 41.34735601 13.1271926 51 22 C51.72832031 22.66 52.45664062 23.32 53.20703125 24 C63.72481697 33.99092075 67.62816974 45.89385162 70 60 C70.78310547 59.32904297 70.78310547 59.32904297 71.58203125 58.64453125 C83.79783387 48.61088602 96.28570555 45.63244623 111.859375 46.12109375 C129.45899378 47.95281373 144.78923678 55.41943889 160 64 C160 65.65 160 67.3 160 69 C155.90534441 70.48064645 152.09352328 71.38211833 147.7734375 71.89453125 C146.5865332 72.0426123 145.39962891 72.19069336 144.17675781 72.34326172 C142.92217773 72.49811035 141.66759766 72.65295898 140.375 72.8125 C122.09867504 75.21464816 105.22591413 79.50681216 88 86 C89.55847656 86.05607422 89.55847656 86.05607422 91.1484375 86.11328125 C108.20556318 86.8570334 121.27153357 91.1394983 133.36328125 103.88671875 C143.42601939 115.41486845 149.2404253 129.20202447 153.9375 143.625 C154.27346191 144.63796143 154.27346191 144.63796143 154.61621094 145.67138672 C155.67782338 149.09435081 156.38888609 151.60111107 155 155 C153.22607422 155.6496582 153.22607422 155.6496582 151 156 C149.20751953 155.07885742 149.20751953 155.07885742 147.3828125 153.60546875 C146.70081787 153.06696289 146.01882324 152.52845703 145.31616211 151.97363281 C144.23153687 151.08949707 144.23153687 151.08949707 143.125 150.1875 C141.58844437 148.97633455 140.05066785 147.76671651 138.51171875 146.55859375 C137.74778809 145.9538623 136.98385742 145.34913086 136.19677734 144.72607422 C122.47829886 133.9470519 107.68710947 125.57616082 92 118 C91.67 118.33 91.34 118.66 91 119 C91.70125 119.680625 92.4025 120.36125 93.125 121.0625 C94.08698848 122.03807589 95.04504098 123.01754216 96 124 C96.49242187 124.49628906 96.98484375 124.99257812 97.4921875 125.50390625 C106.76126634 135.46936667 109.50991255 148.27042266 109.24609375 161.5234375 C107.90746085 180.43428321 100.077526 196.70079777 91 213 C89.35 212.67 87.7 212.34 86 212 C83.81128527 205.39528815 83.07685275 198.69376862 82.1875 191.8125 C79.00334463 168.62051016 72.82501341 147.28482942 62.48901367 126.25317383 C60 121.18200124 60 121.18200124 60 119 C59.34 119 58.68 119 58 119 C57.7628125 119.7734375 57.525625 120.546875 57.28125 121.34375 C55.94332816 125.16172207 54.38320256 128.82420742 52.77636719 132.53466797 C42.67976904 155.99168424 35.01277176 179.96063356 30 205 C29.81244141 205.91104492 29.62488281 206.82208984 29.43164062 207.76074219 C24.51356445 232.02265949 22.25927845 256.70402145 21.2578125 281.40625 C21.22801111 282.12435915 21.19820972 282.8424683 21.16750526 283.58233833 C20.86488496 290.87490685 20.5793857 298.16697585 20.36751556 305.46279716 C20.30362142 307.55452074 20.22936065 309.64558973 20.15097046 311.73681641 C20.05523491 314.32642438 19.97788066 316.91679862 19.92178345 319.50756836 C19.53533918 329.08004406 19.53533918 329.08004406 16.62866211 332.71313477 C10.69003377 337.87958147 5.63005865 338.49489841 -2.0625 338.29296875 C-7.92491205 337.7082867 -13.24244594 335.49820151 -18 332 C-24.11964207 322.93876181 -19.406821 303.49097288 -18.3125 293.0625 C-18.22385681 292.19927124 -18.13521362 291.33604248 -18.04388428 290.44665527 C-11.78201564 229.78593271 0.1918269 162.51308194 33 110 C3.27878475 119.74003998 -22.46171192 133.92418769 -45.88671875 154.76953125 C-48 156 -48 156 -50.76953125 155.69921875 C-51.50558594 155.46847656 -52.24164063 155.23773438 -53 155 C-52.58646221 148.18553884 -51.43985036 142.24684619 -49 135.875 C-48.69094727 135.06023193 -48.38189453 134.24546387 -48.06347656 133.40600586 C-40.66978635 114.56088911 -30.16691961 98.45461923 -11.23828125 89.7265625 C-2.69520238 86.4398664 5.95682455 86.21429326 15 86 C-8.86034408 77.58194563 -32.0026712 73.21612132 -57 70 C-57.495 67.525 -57.495 67.525 -58 65 C-41.3666004 52.16018276 -18.42020681 44.72916561 2.48046875 46.25390625 C17.89366205 48.25960901 27.48272023 54.97923343 38 66 C29.28035406 44.66350303 16.44754993 22.44754993 0 6 C-0.04080783 4.00041636 -0.04254356 1.99954746 0 0 Z " transform="translate(333 21)" class="color79CAA6 svgShape"></path><path fill="#a6e6ef" d="M0 0 C0.85062012 0.36432129 1.70124023 0.72864258 2.57763672 1.10400391 C10.3073364 4.41557425 10.3073364 4.41557425 13.80517578 5.96459961 C14.66481934 6.34237549 15.52446289 6.72015137 16.41015625 7.109375 C17.17465088 7.44936523 17.93914551 7.78935547 18.72680664 8.13964844 C23.2122656 9.8372918 27.4815973 10.1587053 32.25 10.1875 C33.83554687 10.20876953 33.83554687 10.20876953 35.453125 10.23046875 C43.7906257 9.68871485 50.80523248 7.02148695 58.375 3.625 C60.2402968 2.81504934 62.10617593 2.00643833 63.97265625 1.19921875 C66.74134296 -0.00652424 69.49838285 -1.22730096 72.24609375 -2.48046875 C84.44718448 -7.62461203 97.00261239 -5.72127754 108.95947266 -0.86083984 C114.3490352 1.4128617 119.69036717 3.78487679 125.00390625 6.23046875 C136.54359661 11.41447767 148.43301369 11.62303284 160.3671875 7.48046875 C165.95960666 5.20140761 171.46754351 2.73915285 176.93457031 0.17407227 C188.22631755 -5.09921397 200.39290791 -7.40792305 212.5625 -3.625 C219.814564 -0.86278726 226.91289884 2.381849 233.99243164 5.55810547 C235.43283813 6.20030029 235.43283813 6.20030029 236.90234375 6.85546875 C238.19386353 7.43784302 238.19386353 7.43784302 239.51147461 8.03198242 C244.00119229 9.77844868 248.27080747 10.17874807 253.0625 10.25 C254.08472656 10.27578125 255.10695313 10.3015625 256.16015625 10.328125 C266.04801755 9.4831806 274.81219843 6.05848636 283.75 1.9375 C298.79695883 -4.94991246 312.90204623 -7.83891883 329 -2 C332.33893161 -0.55666404 335.63753768 0.97003974 338.9375 2.5 C351.51495865 8.28757989 361.53553881 10.50871473 375.375 9.33447266 C376.61830078 9.23271729 376.61830078 9.23271729 377.88671875 9.12890625 C378.63139404 9.05744385 379.37606934 8.98598145 380.14331055 8.91235352 C382 9 382 9 384 11 C384.17553419 14.08524939 384.23122797 17.07964202 384.1953125 20.1640625 C384.19106766 21.52487442 384.19106766 21.52487442 384.18673706 22.91317749 C384.17552153 25.81725123 384.15041463 28.72101912 384.125 31.625 C384.11497197 33.59114139 384.10584581 35.5572876 384.09765625 37.5234375 C384.07557772 42.34907659 384.04103865 47.1744864 384 52 C377.54701739 54.29343111 372.11482433 55.55342795 365.25 55.5 C363.93140991 55.49033203 363.93140991 55.49033203 362.58618164 55.48046875 C354.87796123 55.265428 348.94650116 53.32258446 342 50 C339.58252032 48.94300446 337.15569783 47.91063939 334.72485352 46.88476562 C333.0779531 46.18879847 331.43491766 45.48358624 329.79663086 44.76757812 C317.16606564 39.32499874 306.07433485 38.30829724 293.01513672 43.18994141 C287.95650858 45.22344373 283.00104312 47.50964967 278.06665039 49.82592773 C266.16301054 55.38221719 252.34044652 58.02402007 239.51171875 53.6796875 C235.97127542 52.28884268 232.54316021 50.68035141 229.125 49.01416016 C225.41392135 47.24304105 221.6126281 45.69315622 217.8125 44.125 C217.11745361 43.827146 216.42240723 43.52929199 215.70629883 43.22241211 C203.59689265 38.13702344 191.99957139 39.18682569 180 44 C174.78942986 46.22787419 169.64214944 48.58763677 164.50390625 50.9765625 C153.7001112 55.88153642 142.00813708 56.92676982 130.36328125 54.125 C127.14823575 52.89868403 124.09248608 51.50862156 121 50 C118.3012118 48.76997274 115.58927042 47.5704205 112.875 46.375 C112.19308594 46.07384277 111.51117188 45.77268555 110.80859375 45.46240234 C98.32623214 40.02098601 86.74509032 37.69171312 73.62109375 42.51953125 C67.84427892 44.88135738 62.10107727 47.32059618 56.38500977 49.82592773 C44.29176245 55.12241269 31.43327517 58.08246241 18.4375 53.64453125 C14.88931033 52.2440996 11.44966632 50.6326906 8.02148438 48.96240234 C-6.90477362 41.8562056 -20.77057722 37.04344352 -37.046875 42.44921875 C-43.32998258 44.81460423 -49.41052648 47.70957639 -55.4855957 50.55810547 C-56.85590942 51.20030029 -56.85590942 51.20030029 -58.25390625 51.85546875 C-59.07189697 52.24371826 -59.8898877 52.63196777 -60.73266602 53.03198242 C-66.18582055 55.36015705 -71.39885242 55.21762851 -77.25 55.25 C-78.16652344 55.270625 -79.08304688 55.29125 -80.02734375 55.3125 C-80.93097656 55.31765625 -81.83460937 55.3228125 -82.765625 55.328125 C-83.57805664 55.3374707 -84.39048828 55.34681641 -85.22753906 55.35644531 C-89.11404621 54.85677109 -92.36707807 53.4634078 -96 52 C-96.04934656 46.19760386 -96.08569402 40.39532919 -96.10986328 34.59277344 C-96.11993627 32.61781691 -96.13359521 30.64287534 -96.15087891 28.66796875 C-96.17507039 25.83329582 -96.18646991 22.99881962 -96.1953125 20.1640625 C-96.20563507 19.27756012 -96.21595764 18.39105774 -96.22659302 17.47769165 C-96.2269907 15.31714048 -96.12272534 13.15706282 -96 11 C-94 9 -94 9 -92.14331055 8.91235352 C-91.39863525 8.98381592 -90.65395996 9.05527832 -89.88671875 9.12890625 C-88.64378052 9.23078247 -88.64378052 9.23078247 -87.37573242 9.3347168 C-86.48861572 9.40988525 -85.60149902 9.48505371 -84.6875 9.5625 C-70.10238102 10.46418167 -59.46403653 6.64665133 -46.30737305 0.58081055 C-30.48707485 -6.64394115 -16.0891227 -6.97531207 0 0 Z " transform="translate(115 399)" class="colorA6E6EF svgShape"></path><path fill="#56be92" d="M0 0 C0.62981679 3.83681494 -0.00720368 5.01011684 -2.30859375 8.2421875 C-3.34300753 9.460441 -4.38655938 10.67097457 -5.4375 11.875 C-14.41103484 22.61484287 -21.00949382 34.38469875 -27 47 C-26.25363281 46.39285156 -25.50726563 45.78570312 -24.73828125 45.16015625 C-22.59229637 43.46724664 -20.48748826 41.90465041 -18.1875 40.4375 C-17.28064453 39.84775391 -17.28064453 39.84775391 -16.35546875 39.24609375 C-9.96840743 35.86720061 -4.28749363 34.44050714 2.9375 34.5 C4.17040771 34.50858032 4.17040771 34.50858032 5.42822266 34.51733398 C18.17430899 34.88056442 32.83439615 39.0030583 43 47 C43.84375 49.71875 43.84375 49.71875 44 52 C40.48493665 53.54139445 37.32961921 54.37619303 33.52734375 54.859375 C32.47160156 55.00270264 31.41585937 55.14603027 30.328125 55.29370117 C29.20921875 55.44427979 28.0903125 55.5948584 26.9375 55.75 C14.95121783 57.46268636 1.95624901 59.5218755 -9 65 C-8.20078125 65.01417969 -7.4015625 65.02835937 -6.578125 65.04296875 C5.65403725 65.57417767 14.90176134 68.88835488 23.7578125 77.50390625 C32.74570576 87.5095923 41.25669784 103.3950144 41 117 C38.9375 117.83984375 38.9375 117.83984375 36 118 C33.39356645 116.52043775 31.24190655 114.53869267 29 112.5625 C13.26752581 99.37433538 -4.73573274 90.76298744 -24 84 C-23.68885254 84.61593018 -23.37770508 85.23186035 -23.05712891 85.86645508 C-3.3529311 125.15554087 15.30708121 174.26877636 14 219 C10.10590112 219.84158017 6.20946688 220.6718106 2.3125 221.5 C1.20970703 221.73847656 0.10691406 221.97695313 -1.02929688 222.22265625 C-2.6293457 222.56103516 -2.6293457 222.56103516 -4.26171875 222.90625 C-5.24100342 223.11572266 -6.22028809 223.32519531 -7.22924805 223.54101562 C-9.87955633 223.9800481 -12.31993732 224.08555667 -15 224 C-15.06993164 222.95473145 -15.13986328 221.90946289 -15.21191406 220.83251953 C-18.25284626 175.99276269 -24.52127155 133.02966205 -44 92 C-58.19320449 109.19478852 -60.97317522 136.63116552 -63.61450195 157.74121094 C-64 160 -64 160 -65 161 C-67.25 161.5625 -67.25 161.5625 -70 161 C-80.20593301 148.17716109 -84.42173973 130.06565893 -83 114 C-81.02350278 104.56671779 -76.82574291 97.66370747 -70 91 C-74.70340614 92.41174212 -78.91769204 94.35638511 -83.1875 96.75 C-83.86441895 97.12906494 -84.54133789 97.50812988 -85.23876953 97.89868164 C-94.87363509 103.46682648 -105.10654592 110.10654592 -113 118 C-115.625 117.625 -115.625 117.625 -118 117 C-118.26858582 111.66271762 -117.47437693 107.37677065 -115.5625 102.4375 C-115.29880615 101.74857666 -115.0351123 101.05965332 -114.76342773 100.34985352 C-108.49382097 84.76244324 -99.53697241 73.76903184 -84 67 C-80.68455701 65.89485234 -77.79589889 65.67892369 -74.3125 65.4375 C-73.13300781 65.35371094 -71.95351562 65.26992187 -70.73828125 65.18359375 C-69.83464844 65.12300781 -68.93101563 65.06242187 -68 65 C-81.16065562 60.1256831 -94.16014689 57.21792518 -108 55 C-109.35446579 54.77260793 -110.70866908 54.54364186 -112.0625 54.3125 C-114.7066828 53.86348783 -117.35181458 53.42460357 -120 53 C-120.33 51.35 -120.66 49.7 -121 48 C-114.64158072 43.72029472 -108.17906866 40.67491547 -101 38 C-100.14792969 37.67644531 -99.29585937 37.35289062 -98.41796875 37.01953125 C-87.50223955 33.44802538 -73.97898825 33.1429154 -63.34765625 37.7109375 C-59.59345129 39.7723146 -56.24418727 42.21130034 -53 45 C-52.79246094 43.96101563 -52.58492188 42.92203125 -52.37109375 41.8515625 C-50.45908862 32.94099804 -48.24445635 25.91885763 -42 19 C-41.37609375 18.30648437 -40.7521875 17.61296875 -40.109375 16.8984375 C-31.90472591 8.78773477 -11.72054691 -3.80125846 0 0 Z " transform="translate(192 116)" class="color56BE92 svgShape"></path><path fill="#c29872" d="M0 0 C6.49985939 8.21034871 6.49985939 8.21034871 6.22265625 12.18359375 C5.02211618 16.17248495 3.22227277 19.80551945 1.4375 23.5625 C-22.12371395 74.74391287 -30.31768203 131.24815032 -32.01171875 187.14453125 C-32.08346808 189.3307408 -32.15557387 191.51693867 -32.22802734 193.703125 C-32.37224533 198.06099885 -32.48327904 202.41811697 -32.57666016 206.77734375 C-32.63980377 208.8060256 -32.70404674 210.83467361 -32.76953125 212.86328125 C-32.78110764 213.79654739 -32.79268402 214.72981354 -32.80461121 215.69136047 C-33.03932845 221.85480898 -34.09980774 224.73949275 -38.625 229 C-44.64027794 232.68282323 -50.69919706 232.69073832 -57.625 232 C-62.61120264 230.7944543 -68.77748978 228.73557342 -71.7434082 224.34399414 C-75.70184942 213.81921039 -72.09107134 198.0556066 -70.9375 187.0625 C-70.84885681 186.19927124 -70.76021362 185.33604248 -70.66888428 184.44665527 C-65.01538656 129.67941625 -53.15460458 76.43394659 -30.625 26 C-30.2336084 25.11940918 -29.8422168 24.23881836 -29.43896484 23.33154297 C-28.3893599 20.98544835 -27.32520929 18.64695636 -26.25 16.3125 C-25.95279053 15.66007324 -25.65558105 15.00764648 -25.34936523 14.33544922 C-20.23791564 3.51776317 -20.23791564 3.51776317 -15.37890625 0.6953125 C-14.65574219 0.50710937 -13.93257813 0.31890625 -13.1875 0.125 C-12.02154297 -0.18050781 -12.02154297 -0.18050781 -10.83203125 -0.4921875 C-10.10371094 -0.65976563 -9.37539063 -0.82734375 -8.625 -1 C-7.5525 -1.33 -6.48 -1.66 -5.375 -2 C-2.625 -2 -2.625 -2 0 0 Z " transform="translate(385.625 127)" class="colorC29872 svgShape"></path><path fill="#b5896c" d="M0 0 C1.56463064 0.25824001 3.1266645 0.53223319 4.6875 0.8125 C5.55761719 0.96332031 6.42773438 1.11414063 7.32421875 1.26953125 C11.2858527 2.3510284 14.15509839 3.76549045 16.51049805 7.20703125 C17.12985229 8.49673828 17.12985229 8.49673828 17.76171875 9.8125 C18.4729187 11.28106445 18.4729187 11.28106445 19.19848633 12.77929688 C19.9355481 14.37354492 19.9355481 14.37354492 20.6875 16 C21.20787842 17.10923828 21.72825684 18.21847656 22.2644043 19.36132812 C38.71091702 55.09522873 54.16493774 100.13324175 53 140 C49.10590112 140.84158017 45.20946688 141.6718106 41.3125 142.5 C40.20970703 142.73847656 39.10691406 142.97695313 37.97070312 143.22265625 C36.90400391 143.44824219 35.83730469 143.67382812 34.73828125 143.90625 C33.75899658 144.11572266 32.77971191 144.32519531 31.77075195 144.54101562 C29.12044367 144.9800481 26.68006268 145.08555667 24 145 C23.93006836 143.95473145 23.86013672 142.90946289 23.78808594 141.83251953 C20.92375608 99.59683457 16.1279609 57.24767159 -2.56201172 18.61743164 C-4.30727694 14.95237468 -5.67059575 12.07945748 -5 8 C-3.90625 5.76171875 -3.90625 5.76171875 -2.5 3.6875 C-2.0359375 2.99011719 -1.571875 2.29273438 -1.09375 1.57421875 C-0.7328125 1.05472656 -0.371875 0.53523437 0 0 Z " transform="translate(153 195)" class="colorB5896C svgShape"></path><path fill="#fece85" d="M0 0 C5.6068031 5.6068031 7.8768329 11.27309457 8.5 19.125 C8.27549854 26.37920334 5.35896517 32.13095628 0.1875 37.1875 C-5.96222738 41.02189177 -11.53210811 42.66490275 -18.8125 42.1875 C-25.77502482 40.56330896 -30.54319739 38.10517478 -35 32.375 C-38.45030546 26.30722144 -39.91576987 20.16224413 -38.3828125 13.25 C-36.20205409 6.35772651 -31.77565238 0.98863184 -25.625 -2.75 C-16.58341263 -6.16571078 -8.15409362 -5.25486033 0 0 Z " transform="translate(92.813 58.813)" class="colorFECE85 svgShape"></path><path fill="#2fd1e2" d="M0 0 C0.67417969 -0.01224609 1.34835937 -0.02449219 2.04296875 -0.03710938 C13.54495562 -0.06984748 22.70530781 4.37083835 32.9609375 9.19921875 C39.72392197 12.29063199 45.98596424 14.26823703 53.375 15.1875 C53.375 15.5175 53.375 15.8475 53.375 16.1875 C20.705 16.1875 -11.965 16.1875 -45.625 16.1875 C-42.57656125 14.1552075 -40.02532178 13.22082401 -36.5625 12.0625 C-28.28472355 9.17651113 -20.35808752 5.61167469 -12.39575195 1.95605469 C-8.21307653 0.14065937 -4.48046992 0.00414091 0 0 Z " transform="translate(422.625 482.813)" class="color2FD1E2 svgShape"></path><path fill="#2ed1e2" d="M0 0 C4.6428234 2.16842996 9.09159495 3.92732314 14.06518555 5.17407227 C14.06518555 5.50407227 14.06518555 5.83407227 14.06518555 6.17407227 C-17.94481445 6.17407227 -49.95481445 6.17407227 -82.93481445 6.17407227 C-82.93481445 5.84407227 -82.93481445 5.51407227 -82.93481445 5.17407227 C-81.82750977 4.93430664 -80.72020508 4.69454102 -79.5793457 4.44750977 C-74.33925314 3.13604609 -69.54618968 0.98741183 -64.62231445 -1.20092773 C-62.74658283 -2.01084393 -60.87028692 -2.8194546 -58.9934082 -3.62670898 C-56.22026639 -4.82559139 -53.46440948 -6.04255408 -50.7199707 -7.30639648 C-33.23933343 -14.76731563 -16.01137108 -7.51167709 0 0 Z " transform="translate(347.935 492.826)" class="color2ED1E2 svgShape"></path><path fill="#2ed1e2" d="M0 0 C4.89908346 2.31878946 9.55728155 4.2938728 14.82763672 5.58056641 C14.82763672 5.91056641 14.82763672 6.24056641 14.82763672 6.58056641 C-17.18236328 6.58056641 -49.19236328 6.58056641 -82.17236328 6.58056641 C-82.17236328 6.25056641 -82.17236328 5.92056641 -82.17236328 5.58056641 C-81.53492188 5.4292627 -80.89748047 5.27795898 -80.24072266 5.12207031 C-72.36915577 3.12878644 -65.10399629 0.19846081 -57.67236328 -3.04443359 C-55.37063186 -4.0374372 -53.06856462 -5.02966288 -50.76611328 -6.02099609 C-49.76257813 -6.45750488 -48.75904297 -6.89401367 -47.72509766 -7.34375 C-31.69526853 -14.09847715 -14.59239027 -6.92372419 0 0 Z " transform="translate(236.172 492.42)" class="color2ED1E2 svgShape"></path><path fill="#2ed1e2" d="M0 0 C1.30582031 -0.01675781 2.61164063 -0.03351563 3.95703125 -0.05078125 C14.05843171 0.45530573 23.12608351 5.42991039 32.06445312 9.72851562 C37.75801939 12.40149515 42.99230503 14.19013612 49.1875 15.3125 C49.1875 15.6425 49.1875 15.9725 49.1875 16.3125 C17.1775 16.3125 -14.8325 16.3125 -47.8125 16.3125 C-44.73740323 14.26243549 -42.11730048 13.30249602 -38.625 12.125 C-32.40004513 9.95530619 -26.40001148 7.46844427 -20.4074707 4.72387695 C-13.62681878 1.65836483 -7.51863003 0.02213532 0 0 Z " transform="translate(92.813 482.688)" class="color2ED1E2 svgShape"></path><path fill="#fdb341" d="M0 0 C4.89926216 1.26154734 7.24896412 3.48173431 10.71484375 7.03515625 C11.30330078 7.58365234 11.89175781 8.13214844 12.49804688 8.69726562 C15.54735326 11.75365518 17.16269244 13.87270209 17.28125 18.28125 C16.77734375 21.97265625 16.77734375 21.97265625 14.77734375 23.97265625 C8.25925496 24.8624271 8.25925496 24.8624271 4.92236328 22.85888672 C3.10192059 21.30180106 1.4729373 19.66222959 -0.16015625 17.91015625 C-1.02350586 17.06807617 -1.02350586 17.06807617 -1.90429688 16.20898438 C-5.63746178 12.36149404 -7.17545356 9.53583013 -7.22265625 3.97265625 C-5.13294328 0.4898013 -4.06834756 -0.03451931 0 0 Z " transform="translate(108.223 101.027)" class="colorFDB341 svgShape"></path><path fill="#fdb340" d="M0 0 C2 3 2 3 2.0078125 6.25390625 C0.69721846 11.1254554 -1.56607508 13.49325155 -5.125 16.9375 C-5.681875 17.52595703 -6.23875 18.11441406 -6.8125 18.72070312 C-9.92003348 21.80317585 -11.32705999 22.92131778 -15.80859375 23.4453125 C-19 23 -19 23 -20.9375 21.9375 C-22.67293977 18.77287453 -22.43468474 16.56149264 -22 13 C-20.21213001 10.33817429 -17.98697788 8.2776887 -15.625 6.125 C-14.72007813 5.25488281 -14.72007813 5.25488281 -13.796875 4.3671875 C-8.92083563 -0.27046773 -6.98340395 -1.4964437 0 0 Z " transform="translate(52 102)" class="colorFDB340 svgShape"></path><path fill="#fdb340" d="M0 0 C1.9375 1.0625 1.9375 1.0625 3 3 C3.46275821 6.31643381 3.72065658 8.84920004 1.88989258 11.77270508 C0.32338751 13.58345433 -1.32362672 15.22945069 -3.0625 16.875 C-3.90458008 17.74511719 -3.90458008 17.74511719 -4.76367188 18.6328125 C-8.61107992 22.39667683 -11.4081248 23.95933182 -17 24 C-19.5 22.5 -19.5 22.5 -21 20 C-20.95933182 14.4081248 -19.39667683 11.61107992 -15.6328125 7.76367188 C-14.76269531 6.9215918 -14.76269531 6.9215918 -13.875 6.0625 C-13.318125 5.47404297 -12.76125 4.88558594 -12.1875 4.27929688 C-8.24023577 0.36386542 -5.76667385 -0.80465217 0 0 Z " transform="translate(122 30)" class="colorFDB340 svgShape"></path><path fill="#fdb341" d="M0 0 C2.66888443 1.6713149 4.7185325 3.78373283 6.875 6.0625 C7.45507812 6.62388672 8.03515625 7.18527344 8.6328125 7.76367188 C12.39667683 11.61107992 13.95933182 14.4081248 14 20 C12.5 22.5 12.5 22.5 10 24 C4.4081248 23.95933182 1.61107992 22.39667683 -2.23632812 18.6328125 C-3.0784082 17.76269531 -3.0784082 17.76269531 -3.9375 16.875 C-4.52595703 16.318125 -5.11441406 15.76125 -5.72070312 15.1875 C-8.80317585 12.07996652 -9.92131778 10.67294001 -10.4453125 6.19140625 C-10 3 -10 3 -8.9375 1.0625 C-5.786183 -0.66564158 -3.54663998 -0.41468406 0 0 Z " transform="translate(40 30)" class="colorFDB341 svgShape"></path><path fill="#fdb440" d="M0 0 C2.28221439 1.6315629 2.92043856 2.52603398 3.38818359 5.3125 C3.39156738 6.199375 3.39495117 7.08625 3.3984375 8 C3.40230469 8.969375 3.40617187 9.93875 3.41015625 10.9375 C3.39855469 11.948125 3.38695313 12.95875 3.375 14 C3.38660156 15.010625 3.39820312 16.02125 3.41015625 17.0625 C3.40628906 18.031875 3.40242188 19.00125 3.3984375 20 C3.39336182 21.3303125 3.39336182 21.3303125 3.38818359 22.6875 C2.92316352 25.45773278 2.20135498 26.31041867 0 28 C-2.375 28.9375 -2.375 28.9375 -5 29 C-7.6328125 27.6953125 -7.6328125 27.6953125 -10 25 C-10.71074068 21.30268542 -10.60617045 17.68966022 -10.5 13.9375 C-10.50257812 12.93138672 -10.50515625 11.92527344 -10.5078125 10.88867188 C-10.40988581 3.55885883 -10.40988581 3.55885883 -8.68945312 1.21313477 C-5.86396019 -0.81574882 -3.34683927 -0.35858992 0 0 Z " transform="translate(81 114)" class="colorFDB440 svgShape"></path><path fill="#fdb440" d="M0 0 C1.00224609 -0.02835937 2.00449219 -0.05671875 3.03710938 -0.0859375 C10.37305442 -0.10551307 10.37305442 -0.10551307 13.7578125 2.8671875 C15.0625 5.5 15.0625 5.5 15 8.125 C13.97824377 10.71344911 13.23738144 11.79315402 11.0625 13.5 C8.75 13.88818359 8.75 13.88818359 6.0625 13.8984375 C5.093125 13.90230469 4.12375 13.90617187 3.125 13.91015625 C2.114375 13.89855469 1.10375 13.88695313 0.0625 13.875 C-0.948125 13.88660156 -1.95875 13.89820312 -3 13.91015625 C-3.969375 13.90628906 -4.93875 13.90242188 -5.9375 13.8984375 C-6.824375 13.89505371 -7.71125 13.89166992 -8.625 13.88818359 C-11.41146602 13.42043856 -12.3059371 12.78221439 -13.9375 10.5 C-14.59012177 4.40886348 -14.59012177 4.40886348 -12.72436523 1.81054688 C-9.11571778 -0.83615617 -4.30902231 -0.0110417 0 0 Z " transform="translate(127.938 70.5)" class="colorFDB440 svgShape"></path><path fill="#fdb341" d="M0 0 C0.969375 -0.00386719 1.93875 -0.00773437 2.9375 -0.01171875 C3.948125 -0.00011719 4.95875 0.01148437 6 0.0234375 C7.010625 0.01183594 8.02125 0.00023438 9.0625 -0.01171875 C10.031875 -0.00785156 11.00125 -0.00398438 12 0 C12.886875 0.00338379 13.77375 0.00676758 14.6875 0.01025391 C17.47396602 0.47799894 18.3684371 1.11622311 20 3.3984375 C20.65224742 9.48608012 20.65224742 9.48608012 18.7890625 12.09228516 C16.42233336 13.82017829 14.91453788 13.78575485 12 13.796875 C11.030625 13.80074219 10.06125 13.80460937 9.0625 13.80859375 C8.051875 13.79699219 7.04125 13.78539063 6 13.7734375 C4.989375 13.78503906 3.97875 13.79664062 2.9375 13.80859375 C1.968125 13.80472656 0.99875 13.80085938 0 13.796875 C-0.886875 13.79349121 -1.77375 13.79010742 -2.6875 13.78662109 C-5.47396602 13.31887606 -6.3684371 12.68065189 -8 10.3984375 C-8.65224742 4.31079488 -8.65224742 4.31079488 -6.7890625 1.70458984 C-4.42233336 -0.02330329 -2.91453788 0.01112015 0 0 Z " transform="translate(21 70.602)" class="colorFDB341 svgShape"></path><path fill="#fdb341" d="M0 0 C2.28221439 1.6315629 2.92043856 2.52603398 3.38818359 5.3125 C3.39156738 6.199375 3.39495117 7.08625 3.3984375 8 C3.40230469 8.969375 3.40617187 9.93875 3.41015625 10.9375 C3.39855469 11.948125 3.38695313 12.95875 3.375 14 C3.38660156 15.010625 3.39820312 16.02125 3.41015625 17.0625 C3.40628906 18.031875 3.40242188 19.00125 3.3984375 20 C3.39336182 21.3303125 3.39336182 21.3303125 3.38818359 22.6875 C2.92043856 25.47396602 2.28221439 26.3684371 0 28 C-6.08764262 28.65224742 -6.08764262 28.65224742 -8.69384766 26.7890625 C-10.42174079 24.42233336 -10.38731735 22.91453788 -10.3984375 20 C-10.40230469 19.030625 -10.40617187 18.06125 -10.41015625 17.0625 C-10.39855469 16.051875 -10.38695313 15.04125 -10.375 14 C-10.38660156 12.989375 -10.39820312 11.97875 -10.41015625 10.9375 C-10.40628906 9.968125 -10.40242188 8.99875 -10.3984375 8 C-10.39505371 7.113125 -10.39166992 6.22625 -10.38818359 5.3125 C-9.39644073 -0.59554301 -5.23971904 -0.56139847 0 0 Z " transform="translate(81 13)" class="colorFDB341 svgShape"></path><path fill="#32d1e2" d="M0 0 C0 1.32 0 2.64 0 4 C-3.96 4 -7.92 4 -12 4 C-12 3.67 -12 3.34 -12 3 C-10.37604003 2.49663233 -8.75079459 1.99741024 -7.125 1.5 C-6.22007812 1.2215625 -5.31515625 0.943125 -4.3828125 0.65625 C-2 0 -2 0 0 0 Z " transform="translate(499 495)" class="color32D1E2 svgShape"></path><path fill="#30d1e2" d="M0 0 C5.445 1.485 5.445 1.485 11 3 C11 3.33 11 3.66 11 4 C7.37 4 3.74 4 0 4 C0 2.68 0 1.36 0 0 Z " transform="translate(19 495)" class="color30D1E2 svgShape"></path></svg></g></svg>