<svg id="SvgjsSvg1059" width="288" height="288" xmlns="http://www.w3.org/2000/svg" version="1.1" xmlns:xlink="http://www.w3.org/1999/xlink" xmlns:svgjs="http://svgjs.com/svgjs"><circle id="SvgjsCircle1079" r="144" cx="144" cy="144" transform="matrix(1,0,0,1,0,0)" fill="#fbd8ae"></circle><defs id="SvgjsDefs1060"></defs><g id="SvgjsG1061" transform="matrix(0.73,0,0,0.73,38.876154613494876,38.86044326841831)"><svg xmlns="http://www.w3.org/2000/svg" viewBox="0 0 512 512" width="288" height="288"><path d="M0 0 C0.99496994 -0.00952698 1.98993988 -0.01905396 3.01506042 -0.02886963 C5.11718298 -0.04101723 7.21941493 -0.04021156 9.3215332 -0.02734375 C12.52296075 -0.01569778 15.71907371 -0.0678376 18.91992188 -0.125 C20.96744423 -0.12888678 23.01497788 -0.12900898 25.0625 -0.125 C26.01171829 -0.14544373 26.96093658 -0.16588745 27.93891907 -0.18695068 C34.33965094 -0.0764525 37.54378516 1.45719785 42.07704163 5.98576355 C42.62267258 6.56280533 43.16830353 7.13984711 43.73046875 7.734375 C44.67148437 8.57097656 45.6125 9.40757813 46.58203125 10.26953125 C54.93982394 17.88571698 62.9237238 25.85750668 70.86376953 33.90454102 C76.58418561 39.67964819 76.58418561 39.67964819 82.6171875 45.12109375 C89.07383436 50.6482322 94.91643833 56.86688064 100.88525391 62.90966797 C106.3226913 68.40839952 111.74413573 73.84126821 117.63427734 78.86083984 C122.56904137 83.27143606 127.14422035 88.08815196 131.79296875 92.796875 C133.88498715 94.91579215 135.98051233 97.03115352 138.078125 99.14453125 C138.99601807 100.07402588 139.91391113 101.00352051 140.85961914 101.96118164 C141.80699951 102.87633545 142.75437988 103.79148926 143.73046875 104.734375 C144.23906937 105.281436 144.74766998 105.82849701 145.27168274 106.39213562 C149.41333198 110.50976469 152.53334632 111.42566563 158.33033752 111.4896698 C159.27835739 111.4711647 160.22637726 111.45265961 161.203125 111.43359375 C162.70328407 111.44348076 162.70328407 111.44348076 164.23374939 111.4535675 C167.42083967 111.47098567 170.6059731 111.44915555 173.79296875 111.421875 C193.36740419 111.35136082 208.90583183 113.07298099 227.03833008 120.72241211 C229.31563814 121.68142143 231.60125263 122.61813448 233.88867188 123.55273438 C235.3586053 124.16278129 236.82802643 124.77406438 238.296875 125.38671875 C238.97085831 125.66289536 239.64484161 125.93907196 240.33924866 126.22361755 C247.61708659 129.32094675 251.27781296 132.82906342 254.73046875 139.734375 C256.94692294 145.46021499 256.26338521 152.12940115 253.852005 157.6725769 C250.13872676 164.49895455 244.12641493 167.99356697 237.09375 170.6640625 C235.8909565 171.14505905 235.8909565 171.14505905 234.66386414 171.63577271 C232.12993393 172.64406123 229.58691673 173.62667816 227.04296875 174.609375 C225.32553442 175.2900605 223.60873055 175.97233898 221.89257812 176.65625 C206.19197929 182.87338579 206.19197929 182.87338579 200.40234375 182.83203125 C199.603125 182.82880859 198.80390625 182.82558594 197.98046875 182.82226562 C197.15546875 182.81388672 196.33046875 182.80550781 195.48046875 182.796875 C194.64 182.79236328 193.79953125 182.78785156 192.93359375 182.78320312 C190.86585474 182.77145461 188.79815251 182.75352022 186.73046875 182.734375 C186.73236735 183.40209962 186.73426595 184.06982424 186.73622209 184.75778294 C186.84810823 224.33103073 186.93389937 263.90425812 186.9857954 303.47763205 C186.99204894 308.22906616 186.99852055 312.98049996 187.00512695 317.73193359 C187.00643851 318.67785999 187.00775006 319.62378639 187.00910135 320.59837723 C187.03085894 335.91545696 187.07028243 351.23244289 187.11623273 366.54946697 C187.16298752 382.26571221 187.19076208 397.98190832 187.20091122 413.69822025 C187.20777241 423.39636177 187.22944407 433.09423812 187.27005108 442.79229802 C187.29647737 449.44229075 187.30447 456.09214637 187.29797564 462.7421878 C187.29477254 466.57921566 187.29968832 470.41578011 187.32649612 474.2527256 C187.3553623 478.41471762 187.34540504 482.57572357 187.33174133 486.73779297 C187.34630554 487.94792085 187.36086975 489.15804873 187.37587529 490.40484715 C187.31370504 497.40024995 186.68871427 502.54172223 181.73046875 507.734375 C175.87238838 513.10699366 170.1111112 513.45028594 162.43121338 513.36256409 C161.31239045 513.36965847 160.19356752 513.37675286 159.04084086 513.38406223 C155.3019401 513.4016266 151.56408094 513.383544 147.82519531 513.36547852 C145.14085514 513.3706178 142.4565844 513.37771058 139.77226257 513.38716125 C133.24536647 513.40551081 126.71877032 513.39704474 120.19188365 513.37907303 C114.88840661 513.36503461 109.58501087 513.36115688 104.28151703 513.3645153 C103.52608222 513.36499275 102.77064741 513.36547019 101.99232064 513.3659621 C100.45761482 513.36698844 98.92290902 513.3680438 97.38820323 513.36912786 C83.82824088 513.37768887 70.26842324 513.36103683 56.70849609 513.33129883 C43.54925464 513.30243996 30.39022147 513.29538943 17.23095703 513.31079102 C2.89642488 513.32754517 -11.43800848 513.33159722 -25.77254319 513.31408066 C-27.30030965 513.31223627 -28.82807611 513.31040154 -30.35584259 513.30857658 C-31.10752194 513.30766449 -31.8592013 513.3067524 -32.63365881 513.30581268 C-37.93333821 513.30020413 -43.23296939 513.30351719 -48.53264618 513.31012154 C-54.9871744 513.31784589 -61.4414975 513.31113407 -67.89598432 513.2859465 C-71.18974031 513.27343289 -74.48311041 513.26946875 -77.77688789 513.27848816 C-81.344335 513.28713369 -84.91084222 513.27130873 -88.47821045 513.2490387 C-89.52333101 513.25727946 -90.56845157 513.26552023 -91.64524245 513.27401072 C-98.60036518 513.19346751 -98.60036518 513.19346751 -101.9127388 510.92095852 C-103.92135042 507.68391437 -103.80183863 505.46052668 -103.26953125 501.734375 C-101.89823246 499.5476408 -101.89823246 499.5476408 -99.26953125 497.734375 C-95.75512356 497.12672389 -92.26919059 497.1927027 -88.71031189 497.22212219 C-87.62278596 497.21532651 -86.53526003 497.20853082 -85.41477877 497.2015292 C-81.75800512 497.18352169 -78.10186388 497.19405621 -74.44506836 497.2043457 C-71.82868433 497.19725133 -69.21230458 497.18838945 -66.59593201 497.17788696 C-60.95598384 497.15796721 -55.31617095 497.15253959 -49.67619133 497.15682411 C-41.51847348 497.16291301 -33.36092853 497.14606174 -25.20324571 497.12341418 C-11.96387006 497.08718987 1.27547165 497.06804173 14.51489258 497.06030273 C27.36874963 497.05273923 40.22257549 497.03964248 53.07641602 497.01733398 C54.2641066 497.01527794 54.2641066 497.01527794 55.47579093 497.01318035 C64.11652329 496.99805869 72.75725189 496.98132646 81.39797878 496.96335888 C82.15697836 496.96178691 82.91597793 496.96021494 83.69797749 496.95859533 C88.24870687 496.94916932 88.24870687 496.94916932 92.79943591 496.93957772 C101.68879871 496.92075044 110.57813877 496.90687834 119.46752059 496.90178206 C125.69886534 496.89816423 131.93019681 496.89018902 138.16153526 496.8807106 C140.72263065 496.87774223 143.28372871 496.87651634 145.84482574 496.87712288 C149.32931711 496.87778639 152.81374945 496.87246546 156.29823303 496.86567688 C157.8335209 496.86830244 157.8335209 496.86830244 159.39982468 496.87098104 C160.32991425 496.86797339 161.26000383 496.86496574 162.21827793 496.86186695 C163.02301534 496.8613772 163.82775275 496.86088745 164.65687615 496.86038285 C166.92807601 496.81189601 166.92807601 496.81189601 169.73046875 495.734375 C170.06046875 414.554375 170.39046875 333.374375 170.73046875 249.734375 C90.46761219 243.46381386 90.46761219 243.46381386 54.29296875 276.171875 C48.28532043 282.26419772 42.25283226 288.19409605 35.73046875 293.734375 C34.91835938 294.45367187 34.10625 295.17296875 33.26953125 295.9140625 C32.63789063 296.47351563 32.00625 297.03296875 31.35546875 297.609375 C30.70835937 298.18429687 30.06125 298.75921875 29.39453125 299.3515625 C26.71025613 301.58215732 24.97321414 301.86941459 21.55957031 301.92724609 C20.2674765 301.95134048 20.2674765 301.95134048 18.94927979 301.97592163 C15.00297845 302.02042046 11.05684529 302.06144833 7.11035156 302.08447266 C5.03081053 302.10101815 2.95132603 302.1282895 0.87207031 302.16650391 C-2.12855488 302.2213643 -5.12784658 302.24316201 -8.12890625 302.2578125 C-9.05411072 302.28048187 -9.97931519 302.30315125 -10.93255615 302.32650757 C-15.24871182 302.31243304 -18.34790765 302.1618826 -21.85009766 299.48095703 C-25.12485965 295.7633917 -25.12485965 295.7633917 -25.12109375 292.265625 C-24.66072519 284.9966478 -20.44322296 279.20848509 -16.64453125 273.234375 C-15.92243325 272.06506305 -15.20236653 270.89449417 -14.484375 269.72265625 C-13.14158976 267.53659777 -11.78607108 265.36090739 -10.41943359 263.18945312 C-7.64914825 258.73736613 -4.96735191 254.23074277 -2.26953125 249.734375 C-70.24953125 249.734375 -138.22953125 249.734375 -208.26953125 249.734375 C-208.17910446 293.23051803 -208.17910446 293.23051803 -208.06054688 336.7265625 C-208.04249567 342.58430921 -208.02463155 348.44205645 -208.00708008 354.29980469 C-208.00487239 355.03401626 -208.0026647 355.76822783 -208.00039011 356.52468824 C-207.96498372 368.39057921 -207.94014594 380.2564701 -207.91918423 392.12239437 C-207.89745065 404.29267999 -207.86442365 416.46289684 -207.82082969 428.63312399 C-207.79427067 436.14773806 -207.77660668 443.66226637 -207.77018521 451.17692508 C-207.76432626 456.93128862 -207.74278354 462.68550927 -207.71525574 468.43980598 C-207.70642373 470.80618625 -207.7027635 473.17259202 -207.70452309 475.53898811 C-207.70616123 478.75712808 -207.68960202 481.97466134 -207.66825867 485.19271851 C-207.67310624 486.14017516 -207.67795382 487.0876318 -207.68294829 488.06379926 C-207.66876348 489.34992028 -207.66876348 489.34992028 -207.65429211 490.66202354 C-207.6523935 491.40551595 -207.6504949 492.14900836 -207.64853877 492.91503084 C-207.40469103 495.1508611 -207.40469103 495.1508611 -204.26953125 496.734375 C-201.71845716 496.92652844 -199.27560626 497.00429277 -196.72460938 496.98974609 C-195.57538246 496.99517677 -195.57538246 496.99517677 -194.40293884 497.00071716 C-192.73982433 497.00760943 -191.07668721 497.01011692 -189.41355896 497.00876999 C-186.78275197 497.00780589 -184.15235483 497.02073195 -181.52160645 497.03775024 C-174.04226845 497.08406531 -166.56297253 497.10864056 -159.08349609 497.11523438 C-154.50871484 497.12024029 -149.93436221 497.14444109 -145.35972595 497.18056107 C-143.61501129 497.19037895 -141.87023781 497.1926802 -140.12550354 497.18738937 C-137.68801831 497.18034333 -135.25181691 497.19754773 -132.81445312 497.22021484 C-131.72963905 497.20795616 -131.72963905 497.20795616 -130.62290955 497.19544983 C-127.42520499 497.24849169 -125.71146426 497.32218028 -123.32531738 499.54776001 C-121.75696746 502.79593438 -121.8255321 505.18238178 -122.26953125 508.734375 C-123.79251099 510.92176819 -123.79251099 510.92176819 -126.26953125 512.734375 C-129.09084286 513.12396437 -131.52028548 513.2718675 -134.33935547 513.23608398 C-135.14960175 513.24148697 -135.95984802 513.24688995 -136.79464722 513.25245667 C-139.47154339 513.26495754 -142.14736665 513.24844147 -144.82421875 513.23046875 C-146.68742937 513.23062374 -148.55064031 513.23211267 -150.41384888 513.23487854 C-154.31950122 513.23626324 -158.22478667 513.22369496 -162.13037109 513.20092773 C-167.12952678 513.17258232 -172.12807101 513.17526879 -177.12727165 513.18801785 C-180.97581169 513.19498434 -184.82421121 513.18717399 -188.67273331 513.17476082 C-190.5154682 513.17025297 -192.35821821 513.16990369 -194.20095444 513.17382622 C-196.78125474 513.17674694 -199.36072298 513.16018934 -201.94091797 513.13842773 C-202.69852417 513.14292938 -203.45613037 513.14743103 -204.23669434 513.15206909 C-209.81229327 513.07420689 -213.89154875 511.83289374 -218.09765625 508.12109375 C-218.566875 507.56035156 -219.03609375 506.99960937 -219.51953125 506.421875 C-219.9990625 505.86886719 -220.47859375 505.31585938 -220.97265625 504.74609375 C-223.81588547 500.33566287 -224.51963064 495.89002767 -224.52400684 490.72414589 C-224.52983904 489.53626209 -224.53567123 488.34837829 -224.54168016 487.12449801 C-224.53790083 485.82840054 -224.53412151 484.53230308 -224.53022766 483.19692993 C-224.53324932 481.79914374 -224.53713888 480.40135921 -224.54182023 479.00357759 C-224.55210715 475.16741654 -224.54991664 471.33134887 -224.54563963 467.49518013 C-224.54317367 463.35602433 -224.55218498 459.21689108 -224.55967712 455.07774353 C-224.57242984 446.970495 -224.57421709 438.86327958 -224.57187686 430.75602271 C-224.57009415 424.16631785 -224.57184234 417.57662305 -224.5761013 410.9869194 C-224.57669649 410.04919467 -224.57729168 409.11146993 -224.57790491 408.14532929 C-224.57911665 406.24036134 -224.58033079 404.3353934 -224.58154728 402.43042545 C-224.59242507 384.5633542 -224.59025922 366.69630183 -224.58416244 348.82922952 C-224.57899332 332.48437955 -224.59024816 316.13958918 -224.60926066 299.794751 C-224.62863336 283.0115726 -224.63689604 266.22842241 -224.6331374 249.44523275 C-224.63122447 240.02288246 -224.63372194 230.6005829 -224.64785194 221.17824173 C-224.65975949 213.15671675 -224.66117768 205.13527371 -224.64906178 197.11374761 C-224.64316863 193.0216231 -224.64208565 188.92964852 -224.65406418 184.83753395 C-224.66490784 181.08953541 -224.66183784 177.34181227 -224.64780249 173.5938267 C-224.64389796 171.59979189 -224.65471507 169.60574493 -224.66609937 167.6117388 C-224.62048908 160.06059985 -224.43786939 153.45844987 -219.33203125 147.45703125 C-218.31109375 146.63525391 -218.31109375 146.63525391 -217.26953125 145.796875 C-216.58890625 145.23097656 -215.90828125 144.66507813 -215.20703125 144.08203125 C-211.63860651 141.59996162 -208.58500801 141.61049905 -204.36604309 141.61412048 C-203.13345261 141.61274582 -201.90086212 141.61137115 -200.63092041 141.60995483 C-199.26281714 141.61349397 -197.89471412 141.61712877 -196.52661133 141.62084961 C-195.08776349 141.62113164 -193.6489155 141.62097343 -192.21006775 141.6204071 C-188.30126658 141.62011977 -184.39249599 141.62600627 -180.48370194 141.63298106 C-176.3997553 141.63922514 -172.31580798 141.63981924 -168.2318573 141.64100647 C-160.49710318 141.64411667 -152.76236316 141.65232588 -145.02761525 141.66235596 C-136.22239471 141.67352674 -127.41717351 141.67902998 -118.61194766 141.68405139 C-100.49780085 141.69450873 -82.38366718 141.71210217 -64.26953125 141.734375 C-66.65445282 138.06393319 -69.0418579 134.39511301 -71.4296875 130.7265625 C-72.09955688 129.6955542 -72.76942627 128.6645459 -73.45959473 127.60229492 C-76.77303806 122.51419037 -80.10700785 117.44989629 -83.59101868 112.47666931 C-86.92653041 107.64293869 -89.52685543 103.58778618 -88.84375 97.57421875 C-87.93212345 94.65329287 -86.4746989 92.80982691 -84.26953125 90.734375 C-79.7538443 88.47653152 -73.6639155 89.369366 -68.70703125 89.296875 C-67.45599609 89.25111328 -66.20496094 89.20535156 -64.91601562 89.15820312 C-56.39981733 89.05516653 -51.73920028 90.26878561 -45.26953125 95.734375 C-43.58960161 96.99578007 -41.90582902 98.2520793 -40.21875 99.50390625 C-38.46368877 100.85005801 -36.70981153 102.19775462 -34.95703125 103.546875 C-34.03277344 104.2473999 -33.10851562 104.9479248 -32.15625 105.66967773 C-28.25501144 108.63156435 -24.37957321 111.58264234 -20.6953125 114.8125 C-15.76011997 119.15008837 -15.76011997 119.15008837 -9.63793945 120.9765625 C1.00172691 119.85099637 11.50974592 118.02928172 22.04296875 116.171875 C23.95888771 115.83863645 25.87490278 115.50595 27.79101562 115.17382812 C32.43863158 114.36703215 37.0848864 113.55279583 41.73046875 112.734375 C37.26979457 104.41579196 32.57883547 96.2436152 27.79296875 88.109375 C27.04036061 86.82747629 26.28775652 85.5455752 25.53515625 84.26367188 C20.21971343 75.21991582 14.83420747 66.21951178 9.4230957 57.23266602 C4.77974678 49.50982879 0.18477391 41.75951066 -4.37866211 33.98925781 C-5.1307697 32.70875964 -5.88352181 31.42863978 -6.63696289 30.14892578 C-7.68845195 28.36222047 -8.73722034 26.57394733 -9.78515625 24.78515625 C-10.38618164 23.76075439 -10.98720703 22.73635254 -11.60644531 21.6809082 C-16.26953125 13.4191959 -16.26953125 13.4191959 -16.26953125 9.171875 C-13.71128125 0.37789062 -8.0338682 -0.03235314 0 0 Z M4.73046875 15.734375 C6.176644 19.63801808 8.00622505 23.10237042 10.1171875 26.6875 C10.45067703 27.255755 10.78416656 27.82401001 11.12776184 28.40948486 C12.22098533 30.26987417 13.31935173 32.12716648 14.41796875 33.984375 C15.18899188 35.29350803 15.95982259 36.6027544 16.73046875 37.91210938 C22.11638702 47.05174765 27.56542135 56.15297574 33.04125977 65.23901367 C38.77960774 74.77548169 44.40506334 84.37676901 50.00976562 93.9921875 C50.35405609 94.58188828 50.69834656 95.17158905 51.05307007 95.77915955 C51.98316378 97.37244964 52.91180501 98.96658739 53.84033203 100.56079102 C54.77594971 102.13171509 54.77594971 102.13171509 55.73046875 103.734375 C56.05271423 104.43860092 56.37495972 105.14282684 56.70697021 105.86839294 C58.86236907 110.17691835 58.86236907 110.17691835 62.91433716 112.45701599 C65.67462866 112.74263868 68.3311714 112.76407843 71.10546875 112.69921875 C72.60859619 112.71197594 72.60859619 112.71197594 74.14208984 112.72499084 C77.33940772 112.7445197 80.5333624 112.70964936 83.73046875 112.671875 C86.9266668 112.6711534 90.12267626 112.68140552 93.31884766 112.69374084 C95.30550917 112.69732468 97.29221886 112.69107773 99.27880859 112.67381287 C100.18324707 112.66793655 101.08768555 112.66206024 102.01953125 112.65600586 C102.81053223 112.6474205 103.6015332 112.63883514 104.41650391 112.62998962 C106.93685203 112.74368517 109.2718895 113.18247716 111.73046875 113.734375 C111.98107065 115.14740738 112.20508796 116.56516974 112.41796875 117.984375 C112.60939453 119.16773437 112.60939453 119.16773437 112.8046875 120.375 C112.70723876 123.47284427 111.86466836 124.52037759 109.73046875 126.734375 C107.44419861 127.18606567 107.44419861 127.18606567 104.71069336 127.12158203 C103.15684685 127.10334129 103.15684685 127.10334129 101.5716095 127.08473206 C99.86940498 127.0389225 99.86940498 127.0389225 98.1328125 126.9921875 C95.66034299 126.96989702 93.18784531 126.95058437 90.71533203 126.93383789 C89.40373108 126.92015167 88.09213013 126.90646545 86.74078369 126.8923645 C56.60467463 126.61583188 28.33161402 130.10940215 -1.19148254 136.2353363 C-13.92278403 138.83163649 -13.92278403 138.83163649 -18.47509766 136.703125 C-19.10077637 136.2184375 -19.72645508 135.73375 -20.37109375 135.234375 C-21.09876953 134.68426758 -21.82644531 134.13416016 -22.57617188 133.56738281 C-23.72375977 132.66004395 -23.72375977 132.66004395 -24.89453125 131.734375 C-25.70341797 131.1165918 -26.51230469 130.49880859 -27.34570312 129.86230469 C-29.08128976 128.53442844 -30.8112683 127.19919634 -32.53613281 125.85742188 C-36.32062379 122.91798516 -40.13845717 120.02316484 -43.95458984 117.125 C-47.41168704 114.49604699 -50.85820213 111.85339663 -54.30273438 109.20800781 C-57.56682943 106.76236758 -59.37868293 105.47565866 -63.45703125 105.609375 C-64.71515625 105.650625 -65.97328125 105.691875 -67.26953125 105.734375 C-65.96256401 109.28090548 -64.40709642 112.26550553 -62.29296875 115.39453125 C-61.70789551 116.26505127 -61.12282227 117.13557129 -60.52001953 118.0324707 C-59.9011084 118.94472412 -59.28219727 119.85697754 -58.64453125 120.796875 C-58.01659668 121.7355542 -57.38866211 122.6742334 -56.74169922 123.64135742 C-54.06796478 127.63265912 -51.38521306 131.60943666 -48.56640625 135.5 C-47.8496875 136.50546875 -47.13296875 137.5109375 -46.39453125 138.546875 C-45.77835938 139.37832031 -45.1621875 140.20976562 -44.52734375 141.06640625 C-42.80974141 144.70964351 -42.47363759 147.83449607 -43.26953125 151.734375 C-44.68121882 154.78158989 -46.5462136 157.40075728 -48.51953125 160.109375 C-49.61366482 161.67942027 -50.70740249 163.24974149 -51.80078125 164.8203125 C-52.36925781 165.62307617 -52.93773437 166.42583984 -53.5234375 167.25292969 C-56.42038018 171.36989354 -59.21946291 175.5512118 -62.01953125 179.734375 C-62.54450195 180.50571777 -63.06947266 181.27706055 -63.61035156 182.07177734 C-64.09084961 182.78543457 -64.57134766 183.4990918 -65.06640625 184.234375 C-65.49276367 184.8634375 -65.91912109 185.4925 -66.35839844 186.140625 C-67.43496818 187.71778814 -67.43496818 187.71778814 -67.26953125 189.734375 C-61.83611274 190.44880373 -59.03129065 189.9754273 -54.5625 186.7265625 C-52.84591844 185.37267206 -51.14474282 183.99908764 -49.45703125 182.609375 C-47.61060266 181.1442848 -45.76291724 179.68077735 -43.9140625 178.21875 C-42.51534912 177.10016602 -42.51534912 177.10016602 -41.08837891 175.95898438 C-36.68596102 172.48463553 -32.17115778 169.16927031 -27.64453125 165.859375 C-26.8455542 165.27140137 -26.04657715 164.68342773 -25.22338867 164.07763672 C-18.24070028 158.9472191 -14.2100181 156.92380295 -5.41769409 158.12350464 C-2.04690053 158.67373206 1.31206374 159.27301251 4.671875 159.88671875 C7.2206995 160.3379111 9.76952774 160.7890823 12.31835938 161.24023438 C15.63946944 161.83411652 18.95993258 162.43158539 22.2802124 163.03009033 C26.80504456 163.84541189 31.33144047 164.6513088 35.859375 165.44921875 C37.09338043 165.66782562 38.32738586 165.8864325 39.5987854 166.11166382 C47.16100684 167.41158804 54.51749982 168.29788199 62.19116211 168.30297852 C64.73046875 168.734375 64.73046875 168.734375 66.60766602 170.53491211 C68.29380681 173.83790024 67.57789454 176.21429862 66.73046875 179.734375 C64.73046875 181.734375 64.73046875 181.734375 60.89453125 181.94921875 C57.248057 182.34278819 56.88693226 182.56038955 54.25390625 185.48828125 C53.5097098 186.74157535 52.79551627 188.01297124 52.10546875 189.296875 C51.69852783 189.99796387 51.29158691 190.69905273 50.87231445 191.42138672 C49.96629042 192.98766507 49.07248115 194.5610527 48.18896484 196.14013672 C46.6369489 198.90071947 45.04253008 201.63319975 43.4375 204.36328125 C41.04908302 208.42798021 38.67305958 212.49944538 36.30859375 216.578125 C31.37356024 225.08238815 26.35857779 233.53905854 21.34814453 241.99902344 C19.69978138 244.78626472 18.05628534 247.57632451 16.4140625 250.3671875 C10.68980426 260.08849908 4.92485767 269.77769932 -1.02001953 279.36621094 C-3.24814811 282.35562081 -3.24814811 282.35562081 -4.26953125 285.734375 C11.05708352 287.83862502 11.05708352 287.83862502 25.00390625 283.0859375 C27.76256597 280.46016938 30.04021812 277.53585863 32.30322266 274.48193359 C34.38501002 271.93293702 36.85292051 269.95109821 39.35913086 267.83032227 C42.25239072 265.2730654 44.97946659 262.56656618 47.69921875 259.828125 C48.22841415 259.29566666 48.75760956 258.76320831 49.30284119 258.21461487 C50.94732048 256.55643891 52.58932777 254.8958547 54.23046875 253.234375 C66.36055155 240.95396365 66.36055155 240.95396365 72.63867188 235.60351562 C77.55053796 231.21448123 82.10396086 226.42085614 86.73046875 221.734375 C98.45757117 209.85525459 98.45757117 209.85525459 104.7421875 204.49121094 C108.91684596 200.8025024 112.8018585 196.80608944 116.73046875 192.859375 C117.60058594 191.993125 118.47070312 191.126875 119.3671875 190.234375 C120.18832031 189.41195312 121.00945312 188.58953125 121.85546875 187.7421875 C122.60054687 186.99598145 123.345625 186.24977539 124.11328125 185.48095703 C125.84370274 184.00879815 125.84370274 184.00879815 125.73046875 182.734375 C124.25453247 182.72035645 124.25453247 182.72035645 122.7487793 182.70605469 C119.09744015 182.6661762 115.44694556 182.6004252 111.79614258 182.52685547 C110.21617483 182.49863307 108.63606557 182.47742475 107.0559082 182.46337891 C104.7839303 182.44196535 102.51365604 182.39532966 100.2421875 182.34375 C99.53583664 182.34252136 98.82948578 182.34129272 98.10173035 182.34002686 C94.90284064 182.24452087 93.1544975 182.12208829 90.74926758 179.92285156 C89.21139309 176.61935123 89.89596793 174.20076302 90.73046875 170.734375 C93.09972742 168.36511633 93.55445784 168.48217117 96.76927185 168.46936035 C97.61436813 168.46108719 98.45946442 168.45281403 99.33016968 168.44429016 C100.25947296 168.44527206 101.18877625 168.44625397 102.14624023 168.44726562 C103.12372726 168.44043259 104.10121429 168.43359955 105.10832214 168.42655945 C107.23742295 168.41294182 109.36655676 168.40390763 111.49569511 168.39884949 C114.87208846 168.3905747 118.24820945 168.37007803 121.62452698 168.34631348 C128.8056338 168.2979896 135.98676822 168.26516886 143.16796875 168.234375 C151.45944114 168.19864848 159.75078292 168.15650339 168.04213142 168.09843445 C171.3561036 168.07847409 174.66997398 168.07006471 177.98399353 168.06213379 C180.03938148 168.04914664 182.09476614 168.0356242 184.15014648 168.02148438 C185.51677429 168.02295723 185.51677429 168.02295723 186.91101074 168.02445984 C196.17829668 167.93638173 204.94330127 166.48418558 213.48046875 162.8359375 C214.1458667 162.55970551 214.81126465 162.28347351 215.49682617 161.99887085 C216.88022372 161.42105031 218.26134516 160.83775019 219.64013672 160.24902344 C221.74808463 159.35187765 223.86529205 158.47984334 225.984375 157.609375 C227.33785531 157.0405253 228.69074329 156.47026373 230.04296875 155.8984375 C231.86248047 155.13200928 231.86248047 155.13200928 233.71875 154.35009766 C236.70509249 152.74798882 238.14412969 151.70188808 239.73046875 148.734375 C239.09185073 145.56529312 238.3263256 144.17403636 235.71875 142.25 C226.59759568 137.93576058 217.23545087 134.23199958 207.828125 130.58984375 C206.96711182 130.25621826 206.10609863 129.92259277 205.21899414 129.57885742 C200.90012091 128.11324548 197.02676058 127.61695675 192.47558594 127.78295898 C186.72181012 127.96074165 180.97202126 128.05112456 175.21582031 128.1105957 C172.74647426 128.15110589 170.27740696 128.21836202 167.80957031 128.3137207 C145.08797925 129.14875902 145.08797925 129.14875902 136.31669617 121.4699707 C133.53660921 118.68356804 130.94073129 115.79418363 128.43206787 112.7618103 C126.04444915 109.91699073 123.42999153 107.40331051 120.7578125 104.82421875 C119.05843882 103.10950084 117.36171676 101.39215 115.66796875 99.671875 C108.96982482 92.83135144 108.96982482 92.83135144 101.890625 86.39453125 C95.42153731 80.84693367 89.56051992 74.61808865 83.57568359 68.55908203 C78.13680943 63.05889751 72.71385655 57.62454889 66.82226562 52.60351562 C61.35317678 47.71657069 56.29979045 42.34996568 51.1484375 37.13183594 C43.04056872 28.92732195 43.04056872 28.92732195 34.44921875 21.234375 C32.73046875 19.734375 32.73046875 19.734375 30.86425781 17.57128906 C28.11616344 15.20553825 26.67380877 15.26749543 23.08984375 15.34375 C22.01992188 15.35664063 20.95 15.36953125 19.84765625 15.3828125 C18.18089844 15.43308594 18.18089844 15.43308594 16.48046875 15.484375 C15.35382813 15.50242187 14.2271875 15.52046875 13.06640625 15.5390625 C10.28689979 15.58617278 7.50911535 15.65194139 4.73046875 15.734375 Z M-208.26953125 159.734375 C-208.56378874 162.9339824 -208.56378874 162.9339824 -208.49658203 166.75439453 C-208.49687408 167.47645081 -208.49716614 168.19850708 -208.49746704 168.94244385 C-208.49607133 171.33414642 -208.48049908 173.72553921 -208.46484375 176.1171875 C-208.46111447 177.7734256 -208.4582671 179.42966589 -208.45626831 181.08590698 C-208.44862514 185.4490974 -208.42897085 189.81215507 -208.40686035 194.17529297 C-208.3864166 198.62595829 -208.37726975 203.07664503 -208.3671875 207.52734375 C-208.34572554 216.26308181 -208.31158143 224.9987119 -208.26953125 233.734375 C-180.27987589 234.1083017 -152.29059529 234.39036229 -124.29894447 234.56336975 C-111.30147386 234.64583991 -98.30555592 234.75824851 -85.30908203 234.94140625 C-73.97988898 235.10099096 -62.6518203 235.20413016 -51.32153451 235.23979092 C-45.32265726 235.26063546 -39.32699619 235.30952903 -33.32915115 235.42605591 C-27.67934752 235.53492845 -22.03407285 235.5681157 -16.38331985 235.5440979 C-14.31352071 235.54848882 -12.24356548 235.58018153 -10.17467499 235.6416626 C0.30098528 236.2762866 0.30098528 236.2762866 9.51104212 232.20147896 C12.65512424 228.43825915 14.78365056 224.29178139 16.76054311 219.8284111 C18.34962982 216.39762755 20.3501539 213.22526976 22.3203125 210.00390625 C23.05170454 208.7588467 23.78058582 207.51230547 24.50585938 206.26367188 C24.86139893 205.65257568 25.21693848 205.04147949 25.58325195 204.41186523 C25.9412085 203.79641846 26.29916504 203.18097168 26.66796875 202.546875 C27.78201836 200.6369718 28.89675437 198.7274706 30.01161194 196.81803894 C31.00485536 195.11607011 31.99650272 193.41317013 32.98803711 191.71020508 C34.11823019 189.77999302 35.27400864 187.86445018 36.45922852 185.9675293 C37.8953741 183.8729628 37.8953741 183.8729628 37.73046875 181.734375 C34.73038545 181.04113523 31.72992278 180.3499206 28.72802734 179.66455078 C26.0019915 179.03752442 23.28619522 178.37809578 20.57275391 177.69873047 C1.63066772 172.11711668 1.63066772 172.11711668 -16.94921875 174.97265625 C-20.8258468 177.7471461 -24.02614337 181.09011385 -27.21386719 184.61816406 C-30.88126147 188.39357661 -35.18316234 191.3132244 -39.45703125 194.359375 C-40.2363501 194.9378418 -41.01566895 195.51630859 -41.81860352 196.11230469 C-43.94645414 197.68752998 -46.10226433 199.21408866 -48.26953125 200.734375 C-48.81158203 201.15307861 -49.35363281 201.57178223 -49.91210938 202.00317383 C-55.5213659 205.89705347 -61.80573702 205.2854749 -68.39453125 205.171875 C-69.56113281 205.17896484 -70.72773438 205.18605469 -71.9296875 205.19335938 C-81.62373314 205.12118149 -81.62373314 205.12118149 -86.26953125 201.734375 C-88.03784954 198.19773842 -87.83919408 194.59217073 -87.26953125 190.734375 C-85.8385586 187.37957858 -83.89635076 184.48166774 -81.83203125 181.484375 C-81.02137207 180.25581787 -81.02137207 180.25581787 -80.19433594 179.00244141 C-78.57579022 176.5631641 -76.92896184 174.14597976 -75.26953125 171.734375 C-74.7904834 171.03473633 -74.31143555 170.33509766 -73.81787109 169.61425781 C-71.83821387 166.72967584 -69.84249671 163.86014553 -67.81640625 161.0078125 C-66.17577406 159.05487853 -66.17577406 159.05487853 -66.26953125 157.734375 C-84.48871267 157.68770332 -102.70787863 157.65240991 -120.92710686 157.63075066 C-129.38615794 157.62042765 -137.84517194 157.60634782 -146.30419922 157.58349609 C-153.67504657 157.56359349 -161.04586706 157.55066602 -168.41674054 157.54619801 C-172.32140814 157.5435853 -176.2259989 157.5374232 -180.13064194 157.52291489 C-183.80282797 157.50938034 -187.4749052 157.50514394 -191.1471138 157.50815964 C-193.14345941 157.50734362 -195.13979307 157.49656045 -197.1361084 157.48553467 C-198.31683929 157.488284 -199.49757019 157.49103333 -200.71408081 157.49386597 C-201.74464537 157.49202238 -202.77520992 157.49017879 -203.83700371 157.48827934 C-206.45040223 157.49368471 -206.45040223 157.49368471 -208.26953125 159.734375 Z M144.91796875 186.296875 C144.45777344 186.95816406 143.99757813 187.61945313 143.5234375 188.30078125 C141.88311588 190.52718729 140.40378744 191.95799827 138.3125 193.73046875 C134.62972542 196.87502086 131.17307645 200.20694127 127.76171875 203.640625 C127.23270462 204.17288193 126.70369049 204.70513885 126.15864563 205.25352478 C124.51400246 206.91192304 122.87180175 208.5727009 121.23046875 210.234375 C119.05644166 212.43534488 116.88010629 214.63395152 114.69921875 216.828125 C114.17924316 217.35132324 113.65926758 217.87452148 113.12353516 218.41357422 C109.66394485 221.86874756 106.10596943 225.14200662 102.33398438 228.25195312 C100.33693801 230.0089037 100.33693801 230.0089037 97.73046875 233.734375 C121.82046875 233.734375 145.91046875 233.734375 170.73046875 233.734375 C170.73046875 216.904375 170.73046875 200.074375 170.73046875 182.734375 C151.54562974 180.65195238 151.54562974 180.65195238 144.91796875 186.296875 Z " transform="translate(240.27 -.734)" fill="#ffffff" class="color000 svgShape"></path><path d="M0 0 C0.70672348 -0.00846954 1.41344696 -0.01693909 2.1415863 -0.02566528 C4.45810372 -0.04889994 6.77395145 -0.05006058 9.09057617 -0.04882812 C10.71571614 -0.05593899 12.34085363 -0.06363933 13.96598816 -0.07189941 C17.36606834 -0.08531397 20.76591646 -0.08692718 24.16601562 -0.08105469 C28.50019421 -0.07516793 32.83324901 -0.10572082 37.16721058 -0.14617157 C40.52265814 -0.17216092 43.87783933 -0.17491577 47.23337364 -0.17127991 C48.83001206 -0.17296135 50.4266641 -0.18250884 52.0232029 -0.20042419 C62.16652466 -0.30171256 70.88001277 0.13054191 78.6978302 7.39660645 C85.68172319 14.71837374 87.66732441 22.61090813 87.73217773 32.60205078 C87.74178528 33.80415192 87.75139282 35.00625305 87.7612915 36.24478149 C87.76554138 37.53234344 87.76979126 38.8199054 87.77416992 40.14648438 C87.77841099 41.14179232 87.77841099 41.14179232 87.78273773 42.15720749 C87.7976829 45.67235454 87.80694046 49.18746108 87.8112793 52.70263672 C87.8167413 56.29986845 87.84073413 59.89671735 87.86925125 63.49382973 C87.888051 66.28914403 87.89309244 69.08436954 87.89461517 71.87974167 C87.89904311 73.84033371 87.9176056 75.80087788 87.93658447 77.76138306 C87.90690693 89.83586016 86.66608222 99.55566052 77.98120117 108.35351562 C71.32840749 114.05745057 64.75245978 115.52884987 56.10351562 115.58105469 C54.81480057 115.59066223 53.52608551 115.60026978 52.19831848 115.61016846 C50.79782286 115.61501821 49.39732517 115.6192966 47.99682617 115.62304688 C47.28574392 115.62587425 46.57466167 115.62870163 45.84203148 115.63161469 C42.07632454 115.64657562 38.31065558 115.65582364 34.54492188 115.66015625 C30.67955668 115.66562539 26.81454649 115.68962899 22.94929218 115.7181282 C19.95589731 115.73687334 16.96258577 115.74196653 13.96913719 115.74349213 C12.54555516 115.74649427 11.12197373 115.75443902 9.69845009 115.76767731 C-0.48090787 115.85555869 -10.51599212 115.55598483 -18.83129883 108.99023438 C-26.43402595 101.51762728 -28.4671441 93.08302022 -28.70361328 82.68188477 C-28.72344318 80.08483889 -28.73277585 77.48952654 -28.72973633 74.89257812 C-28.73363326 73.49450048 -28.73796994 72.096424 -28.74272156 70.698349 C-28.75014306 67.78103786 -28.74992204 64.86384784 -28.74462891 61.9465332 C-28.7388357 58.23370083 -28.75578111 54.52136756 -28.77897358 50.80861759 C-28.79380253 47.92501495 -28.79457034 45.04153006 -28.79146385 42.15789604 C-28.79197234 40.79014535 -28.79711995 39.42238723 -28.80727577 38.05467415 C-28.88067061 26.79169386 -28.15859899 16.25025872 -19.86254883 7.83007812 C-13.82251654 2.30351614 -8.19492871 0.05437378 0 0 Z M-10.42895508 21.41992188 C-12.08500262 25.56120414 -12.68375733 29.0526523 -12.70361328 33.49780273 C-12.71314529 34.67600082 -12.72267731 35.85419891 -12.73249817 37.06809998 C-12.73158676 38.32759964 -12.73067535 39.5870993 -12.72973633 40.88476562 C-12.73402145 42.19143692 -12.73830658 43.49810822 -12.74272156 44.84437561 C-12.75016062 47.60389272 -12.74990931 50.36328184 -12.74462891 53.12280273 C-12.73883574 56.64433604 -12.75577216 60.16534314 -12.77897358 63.68678951 C-12.79731945 67.06530285 -12.79352433 70.44370285 -12.79223633 73.82226562 C-12.80144608 75.07974106 -12.81065582 76.33721649 -12.82014465 77.63279724 C-12.78672962 83.97028109 -12.66472314 88.88963869 -9.42895508 94.41992188 C-5.00070862 98.5241503 -2.46524658 99.54400028 3.48608398 99.58105469 C4.72787415 99.59066223 5.96966431 99.60026978 7.24908447 99.61016846 C8.61161109 99.61501731 9.97413984 99.61929592 11.33666992 99.62304688 C12.73191327 99.62879971 14.1271566 99.63455742 15.5223999 99.64031982 C18.45121631 99.65083204 21.38000527 99.65667269 24.30883789 99.66015625 C28.05249898 99.66562988 31.79579431 99.68963226 35.53934097 99.7181282 C38.42363524 99.73680428 41.30784247 99.74196289 44.19219208 99.74349213 C45.5716323 99.74650993 46.9510713 99.75450896 48.33045197 99.76767731 C50.26637004 99.78483355 52.20243919 99.78099896 54.13842773 99.77636719 C55.23825989 99.78001282 56.33809204 99.78365845 57.47125244 99.78741455 C62.30310895 99.21457882 65.55240422 97.49362424 68.88354492 93.98242188 C71.56952337 89.90371387 71.69823622 86.48802739 71.71630859 81.66088867 C71.72268845 80.50256027 71.7290683 79.34423187 71.73564148 78.15080261 C71.7367543 76.90285416 71.73786713 75.6549057 71.73901367 74.36914062 C71.74234207 73.08183548 71.74567047 71.79453033 71.74909973 70.46821594 C71.75508117 67.74385744 71.75694071 65.01953062 71.75634766 62.29516602 C71.75624623 58.81853519 71.76988292 55.34210947 71.78711987 51.86552715 C71.80097153 48.5333955 71.80033021 45.20130066 71.80151367 41.86914062 C71.81229195 40.00632698 71.81229195 40.00632698 71.82328796 38.10588074 C71.92671328 27.65453914 71.92671328 27.65453914 67.39916992 18.52392578 C62.10573311 14.63446798 54.599925 15.7062871 48.32104492 15.75585938 C46.81941333 15.75248756 45.3177844 15.74763189 43.81616211 15.74136353 C40.67559719 15.73400925 37.5357454 15.74464972 34.39526367 15.76806641 C30.38001744 15.79655488 26.36644231 15.78014291 22.35125732 15.75020409 C19.2523959 15.73209104 16.15392731 15.73790713 13.05505371 15.75084305 C11.57515258 15.75416607 10.09521518 15.75012889 8.61535645 15.73844528 C-2.20636538 15.33662185 -2.20636538 15.33662185 -10.42895508 21.41992188 Z " transform="translate(81.429 314.58)" fill="#ffffff" class="color000 svgShape"></path><path d="M0 0 C1.60225662 -0.00269998 3.20451163 -0.00658659 4.8067627 -0.01159668 C8.15209676 -0.01746803 11.49700134 -0.00900586 14.84228516 0.00976562 C19.10914556 0.03255423 23.37499925 0.01941832 27.64182281 -0.00452423 C30.94662933 -0.01904671 34.25120105 -0.01434691 37.55601501 -0.00401306 C39.12833275 -0.00136353 40.70067249 -0.0045524 42.27296448 -0.01393127 C52.53298482 -0.0617169 60.04059483 0.87768402 68.71875 6.71875 C74.82935396 12.96823132 77.58245935 19.68439262 77.62988281 28.35424805 C77.63733017 29.38901527 77.63733017 29.38901527 77.64492798 30.44468689 C77.65953391 32.72745769 77.66635041 35.01015889 77.671875 37.29296875 C77.67762955 38.88377381 77.68338725 40.47457887 77.68914795 42.06538391 C77.69965472 45.40353722 77.70549891 48.74166647 77.70898438 52.07983398 C77.71445593 56.34227422 77.73845639 60.6043929 77.76695633 64.8667326 C77.78565208 68.1551453 77.79079208 71.44348179 77.79232025 74.73194313 C77.79533376 76.30231285 77.80331801 77.87268165 77.81650543 79.44299889 C77.91006826 91.44493984 77.13986597 99.50184327 68.65625 108.546875 C62.26783023 114.34208436 55.36079856 115.63578834 46.92529297 115.70825195 C44.96703079 115.72750481 44.96703079 115.72750481 42.96920776 115.74714661 C41.54978825 115.75531749 40.13036438 115.76276055 38.7109375 115.76953125 C37.99007084 115.77360678 37.26920418 115.7776823 36.52649307 115.78188133 C32.70776919 115.80269753 28.88908073 115.81701609 25.0703125 115.82641602 C21.15337668 115.83744679 17.23701418 115.87182016 13.32028008 115.91158772 C10.28481085 115.93791024 7.24947479 115.94612177 4.21390152 115.94969749 C2.77158886 115.95452641 1.32928063 115.96603307 -0.11291885 115.98473549 C-11.10093021 116.11832671 -21.66939157 115.20813789 -30.03125 107.30859375 C-35.57956431 100.73441924 -37.63778052 94.39156309 -37.70825195 85.91772461 C-37.71482315 85.26181335 -37.72139435 84.6059021 -37.72816467 83.93011475 C-37.747832 81.76460639 -37.75954929 79.59916738 -37.76953125 77.43359375 C-37.77360678 76.68974489 -37.7776823 75.94589603 -37.78188133 75.1795063 C-37.80272023 71.23759365 -37.81702791 67.29571552 -37.82641602 63.35375977 C-37.83743936 59.30788762 -37.87179753 55.26257169 -37.91158772 51.2168951 C-37.93790472 48.08448865 -37.94612139 44.9522113 -37.94969749 41.81970406 C-37.95452943 40.32994418 -37.966045 38.84018872 -37.98473549 37.35053825 C-38.11412096 26.34926835 -37.46586864 16.60910015 -29.84375 8.09375 C-21.41018722 -0.26757669 -11.09858239 -0.06620413 0 0 Z M-19.53125 21.53125 C-21.68205439 24.95715736 -21.79416014 27.7392091 -21.82177734 31.74926758 C-21.83453705 33.00769974 -21.84729675 34.2661319 -21.86044312 35.56269836 C-21.8635012 36.93372443 -21.86572873 38.30475255 -21.8671875 39.67578125 C-21.87361848 41.08819208 -21.88034707 42.50060158 -21.88735962 43.91300964 C-21.89932586 46.87278326 -21.90304123 49.83244023 -21.90185547 52.79223633 C-21.90165255 56.5717643 -21.92892874 60.35053807 -21.96339989 64.12988758 C-21.98571897 67.0476978 -21.98969146 69.96532813 -21.98863602 72.88321495 C-21.99098545 74.27579021 -21.99977181 75.66837093 -22.01530075 77.06086159 C-22.29182725 87.58305453 -22.29182725 87.58305453 -17.53125 96.53125 C-13.26844242 99.08933686 -10.10788655 99.90858157 -5.16210938 99.91943359 C-3.29987732 99.93361832 -3.29987732 99.93361832 -1.40002441 99.9480896 C-0.05834633 99.94271936 1.28332881 99.93656628 2.625 99.9296875 C4.01452792 99.93171096 5.4040548 99.93462467 6.7935791 99.93838501 C9.69858969 99.94279559 12.6033226 99.93641856 15.50830078 99.92236328 C19.22052365 99.90527173 22.93209571 99.91511978 26.64429474 99.93308067 C29.5114629 99.94395305 32.37847833 99.94045645 35.24565125 99.9326973 C36.61390766 99.93070481 37.98217821 99.93312096 39.35041809 99.94013596 C41.26681226 99.94780657 43.18325545 99.93403057 45.09960938 99.91943359 C46.18737671 99.91704681 47.27514404 99.91466003 48.39587402 99.91220093 C53.51445935 99.27763909 56.47957816 97.70180352 59.81140137 93.7590332 C61.66567057 90.1477357 61.97506946 87.92358991 61.98632812 83.88671875 C61.99893677 82.58516846 62.01154541 81.28361816 62.02453613 79.94262695 C62.01737587 78.53466242 62.00917178 77.12670287 62 75.71875 C62.00269764 74.26196026 62.00658233 72.80517228 62.01159668 71.34838867 C62.01747904 68.30207091 62.0089703 65.25622378 61.99023438 62.20996094 C61.9674447 58.31597937 61.9805747 54.4231007 62.00452423 50.52915955 C62.01901692 47.5229876 62.01436053 44.51707476 62.00401306 41.51089478 C62.00135532 40.07565173 62.00458191 38.64038473 62.01393127 37.20516968 C62.02415215 35.19537846 62.00579712 33.18550415 61.98632812 31.17578125 C61.98314575 30.03471924 61.97996338 28.89365723 61.97668457 27.71801758 C61.25085889 23.16420712 59.36781285 19.92821531 55.62557983 17.17539978 C52.68561053 16.29736084 50.02858614 16.25292508 46.95947266 16.22485352 C45.99281929 16.21236824 45.99281929 16.21236824 45.00663757 16.19963074 C42.88196727 16.17558889 40.75760429 16.16676607 38.6328125 16.16015625 C37.15074575 16.15118556 35.66867992 16.14206363 34.18661499 16.13279724 C31.08141889 16.11632059 27.97633043 16.10860955 24.87109375 16.10571289 C20.90077256 16.10032989 16.9314692 16.06264933 12.96143532 16.01696873 C9.90040431 15.98716065 6.83961733 15.97998854 3.77845383 15.97898674 C2.31525383 15.97479191 0.85205261 15.96238703 -0.61100388 15.94146919 C-11.3163392 15.52156902 -11.3163392 15.52156902 -19.53125 21.53125 Z " transform="translate(312.531 314.469)" fill="#ffffff" class="color000 svgShape"></path><path d="M0 0 C4.43617159 2.95744772 7.70356722 6.76073325 11.12109375 10.828125 C12.43392351 12.34565795 13.80751399 13.81177154 15.22265625 15.234375 C21.53249103 21.68887971 21.53249103 21.68887971 22.0625 25.9375 C21.37399198 31.95600979 16.02971926 35.9354918 12 40 C11.03527711 41.08304107 10.07842859 42.17313919 9.12890625 43.26953125 C8.64977783 43.81706055 8.17064941 44.36458984 7.67700195 44.92871094 C6.74317032 45.99786428 5.81563589 47.07255884 4.89526367 48.15332031 C2.82425941 50.47345928 1.31585169 51.8942523 -1.66015625 52.890625 C-4.6001772 53.02805503 -6.3964078 52.33697978 -9 51 C-11.37040308 48.62959692 -11.34465793 47.93697247 -11.4375 44.6875 C-11.47746094 43.92824219 -11.51742187 43.16898437 -11.55859375 42.38671875 C-10.74472205 38.90926693 -8.60683961 37.32679997 -6 35 C-7.19544434 34.97812622 -7.19544434 34.97812622 -8.41503906 34.95581055 C-12.02718124 34.88132525 -15.63839974 34.78466488 -19.25 34.6875 C-20.50425781 34.66494141 -21.75851563 34.64238281 -23.05078125 34.61914062 C-24.85869141 34.5659668 -24.85869141 34.5659668 -26.703125 34.51171875 C-27.81333008 34.48553467 -28.92353516 34.45935059 -30.06738281 34.43237305 C-33.30721044 33.95470615 -34.71314989 33.31676334 -37 31 C-37.87281149 27.57109774 -38.32922829 25.10740423 -37.3125 21.6875 C-35.68460666 19.59449427 -34.46152243 18.99187041 -32 18 C-29.25097656 17.68115234 -29.25097656 17.68115234 -26.140625 17.5859375 C-25.02558594 17.54726563 -23.91054687 17.50859375 -22.76171875 17.46875 C-21.60285156 17.4378125 -20.44398438 17.406875 -19.25 17.375 C-17.48849609 17.31699219 -17.48849609 17.31699219 -15.69140625 17.2578125 C-12.79442732 17.1636018 -9.89745374 17.07798398 -7 17 C-7.6496875 16.25878906 -8.299375 15.51757812 -8.96875 14.75390625 C-11.94113127 10.72404318 -11.62313188 8.90716353 -11 4 C-8.15865173 -0.54615724 -5.11373458 -0.79351054 0 0 Z " transform="translate(230 386)" fill="#ffffff" class="color000 svgShape"></path><path d="M0 0 C3.28860314 2.43070667 4.76756415 3.9075515 5.625 7.9375 C4.77486036 12.10318425 2.78578871 13.82066336 0 17 C0.70084717 17.01981934 1.40169434 17.03963867 2.1237793 17.06005859 C5.31205162 17.15556166 8.49969147 17.26513871 11.6875 17.375 C13.34168945 17.42140625 13.34168945 17.42140625 15.02929688 17.46875 C16.6293457 17.52675781 16.6293457 17.52675781 18.26171875 17.5859375 C19.24100342 17.6173584 20.22028809 17.6487793 21.22924805 17.68115234 C24.18376921 18.02114747 26.35536442 18.6444925 29 20 C31.48038907 23.7205836 31.46337203 25.59796571 31 30 C28.84740618 32.88517218 27.63747745 33.88133537 24.06738281 34.54589844 C22.4020752 34.57731934 22.4020752 34.57731934 20.703125 34.609375 C19.49785156 34.64160156 18.29257813 34.67382812 17.05078125 34.70703125 C15.16939453 34.72830078 15.16939453 34.72830078 13.25 34.75 C11.98027344 34.77964844 10.71054688 34.80929687 9.40234375 34.83984375 C6.26816515 34.91053951 3.13473044 34.96324012 0 35 C0.81210938 35.91652344 1.62421875 36.83304687 2.4609375 37.77734375 C4.68598757 40.28847168 5.00737293 41.04202573 5.625 44.5625 C5 48 5 48 3 51 C-0.35653318 53.23768879 -2.01813932 53.28505875 -5.94482422 52.66845703 C-9.63405072 51.46851617 -11.65549147 48.86287864 -14.0625 45.9375 C-14.57272705 45.34767334 -15.0829541 44.75784668 -15.60864258 44.15014648 C-16.62142092 42.97743042 -17.62680248 41.79827825 -18.62402344 40.61230469 C-20.40510628 38.52531549 -22.30282288 36.55575934 -24.1875 34.5625 C-26.84026059 31.47517961 -28.18745615 29.21776331 -28 25 C-26.05053186 21.2782881 -23.65379966 18.32765556 -20.8125 15.25 C-17.02432706 11.12138668 -13.30647123 6.94218612 -9.62890625 2.71484375 C-6.66614254 -0.40422884 -4.19275951 -0.49326582 0 0 Z " transform="translate(220 323)" fill="#ffffff" class="color000 svgShape"></path><path d="M0 0 C0.95769287 -0.00478363 1.91538574 -0.00956726 2.90209961 -0.01449585 C4.92270555 -0.01789151 6.94336668 -0.00871245 8.96386719 0.01220703 C12.05268111 0.0389774 15.1378613 0.01244798 18.2265625 -0.01953125 C20.19271634 -0.01622709 22.15886791 -0.00982074 24.125 0 C25.04595459 -0.01012115 25.96690918 -0.02024231 26.91577148 -0.03067017 C31.41984818 0.05145398 33.45223471 0.20549448 37.1484375 2.98291016 C39.65786324 6.49802667 39.75477668 8.43348278 39.0625 12.6640625 C37.65600586 14.84350586 37.65600586 14.84350586 35.0625 16.6640625 C31.71335634 17.27701031 28.40129086 17.24824382 25.00390625 17.23046875 C23.53195045 17.23976662 23.53195045 17.23976662 22.03025818 17.24925232 C19.95662426 17.25635059 17.88293336 17.25317637 15.80932617 17.24047852 C12.63939256 17.2266254 9.47241807 17.26066883 6.30273438 17.29882812 C4.28645761 17.29977946 2.27017716 17.29791974 0.25390625 17.29296875 C-1.16504189 17.31285606 -1.16504189 17.31285606 -2.61265564 17.33314514 C-7.20241613 17.26834001 -9.28334957 17.16066831 -13.03540039 14.31225586 C-14.9375 11.6640625 -14.9375 11.6640625 -15.5625 8.6640625 C-13.78422503 0.12834265 -7.30812435 -0.08031521 0 0 Z " transform="translate(67.938 200.336)" fill="#ffffff" class="color000 svgShape"></path><path d="M0 0 C0.82458206 -0.00960754 1.64916412 -0.01921509 2.49873352 -0.02911377 C3.39142441 -0.03336365 4.2841153 -0.03761353 5.20385742 -0.04199219 C6.12140305 -0.04769226 7.03894867 -0.05339233 7.98429871 -0.05926514 C9.92864832 -0.06872152 11.87301401 -0.07525164 13.81738281 -0.07910156 C16.78698872 -0.08879428 19.7558988 -0.11980622 22.7253418 -0.15136719 C24.61400956 -0.15789852 26.50268228 -0.16314848 28.39135742 -0.16699219 C29.27797562 -0.17933899 30.16459381 -0.19168579 31.07807922 -0.20440674 C35.86274545 -0.1871902 39.13320526 0.00178024 42.99682617 3.16113281 C44.54269493 6.25287033 44.29042139 8.75542834 43.99682617 12.16113281 C42.62182617 14.35229492 42.62182617 14.35229492 39.99682617 16.16113281 C36.56302109 16.7745176 33.16523786 16.74528301 29.68432617 16.72753906 C28.67845459 16.73373764 27.67258301 16.73993622 26.63623047 16.74632263 C24.51132169 16.75342091 22.3863573 16.75024669 20.26147461 16.73754883 C17.00815678 16.72368111 13.75771362 16.75775724 10.50463867 16.79589844 C8.4395338 16.79684961 6.37442533 16.79499092 4.30932617 16.79003906 C3.33632568 16.80329727 2.3633252 16.81655548 1.36083984 16.83021545 C-5.3617752 16.73739689 -5.3617752 16.73739689 -8.61645508 13.81323242 C-10.31161405 10.57124089 -10.61729391 8.76908832 -10.00317383 5.16113281 C-6.96520927 1.41430985 -4.74799745 0.04461767 0 0 Z " transform="translate(63.003 170.839)" fill="#ffffff" class="color000 svgShape"></path><path d="M0 0 C0.93928345 -0.00478363 1.87856689 -0.00956726 2.84631348 -0.01449585 C4.8300138 -0.01789471 6.81377015 -0.0086932 8.79736328 0.01220703 C11.83362732 0.03897326 14.86619468 0.0124593 17.90234375 -0.01953125 C19.83073733 -0.01622715 21.7591286 -0.00982091 23.6875 0 C24.59487915 -0.01012115 25.5022583 -0.02024231 26.43713379 -0.03067017 C32.7100366 0.08596117 32.7100366 0.08596117 35.91992188 3.01416016 C37.65086231 6.23563263 37.88116835 8.05568212 37.34375 11.6640625 C35.56390595 14.7999782 34.82066793 15.50508986 31.34375 16.6640625 C28.45291056 16.78532563 25.58695893 16.85223553 22.6953125 16.8671875 C21.84576996 16.87288757 20.99622742 16.87858765 20.12094116 16.88446045 C18.32380415 16.89390355 16.52664987 16.90044169 14.72949219 16.90429688 C11.98601963 16.91400141 9.24329673 16.94503035 6.5 16.9765625 C4.75260861 16.98309301 3.00521187 16.98834329 1.2578125 16.9921875 C0.4399527 17.0045343 -0.3779071 17.0168811 -1.22055054 17.02960205 C-5.85444466 17.01155885 -8.89236755 16.67553504 -12.65625 13.6640625 C-14.08287219 10.81081813 -13.96658868 8.82951701 -13.65625 5.6640625 C-10.37854634 -0.4878482 -6.30012395 -0.0702733 0 0 Z " transform="translate(320.656 379.336)" fill="#ffffff" class="color000 svgShape"></path><path d="M0 0 C0.9170874 -0.00145523 1.8341748 -0.00291046 2.77905273 -0.00440979 C4.71568991 -0.00275171 6.65234038 0.00879941 8.58886719 0.02954102 C11.55200207 0.05849118 14.51334708 0.0501491 17.4765625 0.03710938 C19.35938369 0.04334713 21.24219923 0.05173836 23.125 0.0625 C24.45325806 0.05809654 24.45325806 0.05809654 25.80834961 0.05360413 C29.38525672 0.10842154 31.88866148 0.14729925 35.09765625 1.80834961 C37.4388107 4.50574973 37.44013776 7.00876996 37.5625 10.49609375 C36.75476081 13.21303465 36.16450221 14.13823607 33.73338318 15.58340454 C31.47291254 16.53375838 29.95137169 16.75958 27.51586914 16.78662109 C26.73147964 16.7993808 25.94709015 16.8121405 25.13893127 16.82528687 C23.88100014 16.82862534 23.88100014 16.82862534 22.59765625 16.83203125 C21.29217079 16.84201645 21.29217079 16.84201645 19.96031189 16.85220337 C18.1220816 16.86231513 16.28381471 16.86702085 14.44555664 16.86669922 C11.63821806 16.87107316 8.83245126 16.90740918 6.02539062 16.9453125 C4.23698453 16.95118089 2.44857099 16.95515013 0.66015625 16.95703125 C-0.17644028 16.97140228 -1.0130368 16.98577332 -1.87498474 17.00057983 C-5.93182977 16.96888269 -7.9501552 16.80237315 -11.46679688 14.59228516 C-13.4375 12.49609375 -13.4375 12.49609375 -14.06640625 10.49609375 C-14.04449219 9.83609375 -14.02257812 9.17609375 -14 8.49609375 C-14.00128906 7.83609375 -14.00257812 7.17609375 -14.00390625 6.49609375 C-11.99851678 -0.58500563 -6.12440303 -0.07769734 0 0 Z " transform="translate(99.438 379.504)" fill="#ffffff" class="color000 svgShape"></path><path d="M0 0 C1.20416817 -0.00855011 1.20416817 -0.00855011 2.43266296 -0.01727295 C4.13144618 -0.02671539 5.83024765 -0.03325393 7.52905273 -0.03710938 C10.11670251 -0.04680004 12.70355271 -0.07782358 15.29101562 -0.109375 C16.94400572 -0.11590701 18.59700147 -0.12115671 20.25 -0.125 C21.01895096 -0.1373468 21.78790192 -0.1496936 22.58015442 -0.16241455 C27.38154067 -0.14269266 30.65834629 0.55764101 34.82421875 3.203125 C36.37008751 6.29486252 36.11781396 8.79742052 35.82421875 12.203125 C34.40820312 14.39648438 34.40820312 14.39648438 31.82421875 16.203125 C28.60679482 16.80029838 25.43275215 16.76350803 22.16796875 16.734375 C20.75904358 16.74011536 20.75904358 16.74011536 19.32165527 16.74597168 C17.33796109 16.74869076 15.35423105 16.74132984 13.37060547 16.72460938 C10.33479859 16.70319961 7.30135829 16.72441107 4.265625 16.75 C2.33723436 16.74735672 0.40884519 16.74223175 -1.51953125 16.734375 C-2.88059998 16.74652039 -2.88059998 16.74652039 -4.26916504 16.75891113 C-10.51967113 16.6659392 -10.51967113 16.6659392 -13.74804688 14.38867188 C-15.85402166 11.16488832 -15.71313292 8.96458668 -15.17578125 5.203125 C-11.04398126 -0.21095774 -6.34513199 0.03479382 0 0 Z " transform="translate(322.176 349.797)" fill="#ffffff" class="color000 svgShape"></path><path d="M0 0 C1.24101974 -0.00855011 1.24101974 -0.00855011 2.5071106 -0.01727295 C4.25716882 -0.02671523 6.00724477 -0.03325387 7.75732422 -0.03710938 C10.42837681 -0.04681347 13.09865925 -0.07784285 15.76953125 -0.109375 C17.47134961 -0.11590558 19.17317346 -0.12115584 20.875 -0.125 C21.67098602 -0.1373468 22.46697205 -0.1496936 23.28707886 -0.16241455 C27.87342603 -0.14408024 30.85225685 0.22554067 34.5703125 3.203125 C36.5703125 6.203125 36.5703125 6.203125 36.3828125 9.703125 C35.56624691 13.22063829 35.3175998 14.10806732 32.5703125 16.203125 C30.60401917 16.59080505 30.60401917 16.59080505 28.34594727 16.60717773 C27.49819229 16.61986191 26.65043732 16.63254608 25.7769928 16.64561462 C24.86445236 16.64267899 23.95191193 16.63974335 23.01171875 16.63671875 C22.07102036 16.6419606 21.13032196 16.64720245 20.16111755 16.65260315 C18.17146797 16.65902706 16.18178042 16.65768159 14.19213867 16.64916992 C11.14758624 16.64066626 8.10491355 16.66940586 5.06054688 16.70117188 C3.12760473 16.70278412 1.19465926 16.70220591 -0.73828125 16.69921875 C-1.64879745 16.71045273 -2.55931366 16.72168671 -3.49742126 16.73326111 C-9.80680353 16.6637024 -9.80680353 16.6637024 -13.00439453 14.29931641 C-15.42445353 10.7401135 -14.90015768 8.43735664 -14.4296875 4.203125 C-11.07462548 -0.74958561 -5.39548238 0.02866144 0 0 Z " transform="translate(100.43 349.797)" fill="#ffffff" class="color000 svgShape"></path><path d="M0 0 C1.9375 1.1875 1.9375 1.1875 3 3 C3.70541917 7.0561602 3.32120577 8.54252512 0.9375 11.9375 C-2 14 -2 14 -5.625 14.125 C-9 13 -9 13 -11 10.8125 C-12.23740475 7.33229915 -12.14217883 5.50268174 -11 2 C-7.73738634 -1.89003936 -4.6433228 -1.18193671 0 0 Z " transform="translate(387 140)" fill="#ffffff" class="color000 svgShape"></path><path d="M0 0 C1.9375 1.1875 1.9375 1.1875 3 3 C3.70541917 7.0561602 3.32120577 8.54252512 0.9375 11.9375 C-2 14 -2 14 -5.625 14.125 C-9 13 -9 13 -11 10.8125 C-12.23740475 7.33229915 -12.14217883 5.50268174 -11 2 C-7.73738634 -1.89003936 -4.6433228 -1.18193671 0 0 Z " transform="translate(328 140)" fill="#ffffff" class="color000 svgShape"></path><path d="M0 0 C2.375 1.5625 2.375 1.5625 4 4 C4.42460581 7.45750445 4.70099685 9.83167192 2.875 12.875 C0.14932332 14.51040601 -1.81590023 14.936318 -5 15 C-7.875 13.5 -7.875 13.5 -10 11 C-10.64269755 7.00099302 -10.63913895 4.95870843 -8.375 1.5625 C-5.28314769 -0.47161336 -3.63632575 -0.60605429 0 0 Z " transform="translate(298 139)" fill="#ffffff" class="color000 svgShape"></path><path d="M0 0 C2.46324069 3.69486103 2.38991688 5.63293092 2 10 C0.39746471 12.67089215 -0.89976136 12.96731349 -3.875 13.9375 C-7 14 -7 14 -9.875 12.5 C-12 10 -12 10 -12.625 6.5 C-12 3 -12 3 -9.9375 0.5 C-6.12009638 -1.44931249 -4.07839612 -1.15426305 0 0 Z " transform="translate(359 140)" fill="#ffffff" class="color000 svgShape"></path></svg></g></svg>