<svg id="SvgjsSvg1001" width="288" height="288" xmlns="http://www.w3.org/2000/svg" version="1.1" xmlns:xlink="http://www.w3.org/1999/xlink" xmlns:svgjs="http://svgjs.com/svgjs"><defs id="SvgjsDefs1002"></defs><g id="SvgjsG1008"><svg xmlns="http://www.w3.org/2000/svg" viewBox="0 0 512 512" width="288" height="288"><path d="M0 0 C0.71027344 0.58652344 1.42054688 1.17304687 2.15234375 1.77734375 C6.92504461 5.81719227 11.05295701 10.15516649 15 15 C15.7734375 15.94746094 16.546875 16.89492188 17.34375 17.87109375 C38.81384585 44.68776304 49.52227749 76.03794691 49.125 110.3125 C49.11493778 111.84309302 49.10581773 113.37369254 49.09765625 114.90429688 C49.07592788 118.6030027 49.04158181 122.30145769 49 126 C49.57914154 125.99111755 50.15828308 125.98223511 50.75497437 125.9730835 C56.82271379 125.88408473 62.89026559 125.82404945 68.95849609 125.78027344 C71.21833843 125.76024911 73.47812955 125.73302138 75.73779297 125.69824219 C78.99980362 125.64931922 82.26112487 125.62693868 85.5234375 125.609375 C86.52176605 125.58872986 87.5200946 125.56808472 88.54867554 125.54681396 C97.71508669 125.5439299 105.67289826 127.94980593 112.46875 134.296875 C119.46319437 142.07641006 121.30337976 149.91138953 121.24050903 160.13656616 C121.24307231 161.66333746 121.24307231 161.66333746 121.24568737 163.22095263 C121.24898012 166.62963261 121.23798193 170.03811551 121.22705078 173.44677734 C121.22648662 175.89098099 121.22680332 178.33518498 121.22793579 180.77938843 C121.22839115 186.04060777 121.22272038 191.30176583 121.21146011 196.56296921 C121.1951904 204.16973033 121.1899956 211.77646748 121.18748413 219.38324411 C121.18310934 231.72539901 121.16980609 244.06752744 121.15087891 256.40966797 C121.13251453 268.39729683 121.11836075 280.3849185 121.10986328 292.37255859 C121.10933783 293.11175716 121.10881239 293.85095572 121.10827102 294.61255424 C121.1056609 298.32098006 121.10313349 302.02940593 121.10064721 305.73783183 C121.07992143 336.49190713 121.04455286 367.24594954 121 398 C121.82725586 397.97905273 122.65451172 397.95810547 123.50683594 397.93652344 C127.2544337 397.85338381 131.00183749 397.80134469 134.75 397.75 C136.05195313 397.71648437 137.35390625 397.68296875 138.6953125 397.6484375 C139.94570313 397.63554687 141.19609375 397.62265625 142.484375 397.609375 C143.63647461 397.58842773 144.78857422 397.56748047 145.97558594 397.54589844 C149.65265864 398.09799363 150.80019175 399.05238906 153 402 C155.38461059 416.58820599 149.74719112 430.06718492 141.66796875 441.9609375 C133.43621376 452.44634299 120.69086964 458.79934231 108 462 C104.54113466 462.25299966 104.54113466 462.25299966 100.83153248 462.25726891 C99.79659028 462.26252802 99.79659028 462.26252802 98.74074015 462.26789337 C96.43562466 462.27717528 94.1307636 462.27229244 91.82563782 462.26742554 C90.15347771 462.27116342 88.48131935 462.2757655 86.80916375 462.28115618 C82.21908752 462.29338461 77.62908419 462.29312589 73.03899539 462.29076743 C68.08654764 462.29035922 63.13412326 462.30139885 58.1816864 462.31088257 C48.48036926 462.32749302 38.77907642 462.33299215 29.07774625 462.33410732 C21.19090291 462.33505784 13.30406759 462.33916831 5.41722679 462.34550858 C-16.94766881 462.36312163 -39.31254523 462.37234742 -61.67744782 462.37084763 C-62.88305752 462.37076772 -64.08866722 462.3706878 -65.33081055 462.37060547 C-66.53789391 462.37052371 -67.74497727 462.37044195 -68.98863892 462.37035771 C-88.54782927 462.36954494 -108.10694258 462.38868017 -127.66611066 462.4168822 C-147.75349614 462.44561708 -167.84084406 462.45942214 -187.92825061 462.45769465 C-199.20408399 462.45703093 -210.47983662 462.46251548 -221.75565147 462.48405075 C-231.35697385 462.50227052 -240.9581789 462.50660335 -250.55951109 462.4930319 C-255.45619783 462.48650613 -260.35265952 462.48637099 -265.2493248 462.5037384 C-269.73708659 462.51949148 -274.2244453 462.51658268 -278.7121974 462.49917014 C-280.33063153 462.49610515 -281.94909591 462.49971365 -283.56749436 462.51089029 C-299.31061185 462.61236061 -314.40042268 458.78549206 -326.31640625 447.8125 C-336.19604085 437.17642006 -343.22626074 424.02281291 -343.375 409.3125 C-343.41753906 407.38857422 -343.41753906 407.38857422 -343.4609375 405.42578125 C-343 402 -343 402 -341.37841797 399.81030273 C-338.2460645 397.42615154 -336.39113929 397.53834292 -332.484375 397.609375 C-331.23398437 397.62226563 -329.98359375 397.63515625 -328.6953125 397.6484375 C-326.74238281 397.69871094 -326.74238281 397.69871094 -324.75 397.75 C-323.43257813 397.76804687 -322.11515625 397.78609375 -320.7578125 397.8046875 C-317.50447692 397.85183729 -314.25260375 397.91763956 -311 398 C-311.00368717 396.73109232 -311.00737434 395.46218464 -311.01117325 394.15482521 C-311.09786122 364.0130542 -311.16379033 333.87131543 -311.20426132 303.72945026 C-311.20926396 300.01706168 -311.21444127 296.30467335 -311.21972656 292.59228516 C-311.2207758 291.8532358 -311.22182505 291.11418644 -311.22290608 290.35274164 C-311.24029697 278.39638239 -311.27182737 266.4401003 -311.30861118 254.48378678 C-311.34605731 242.20954861 -311.3682436 229.93535077 -311.37635398 217.66105783 C-311.38183416 210.09110856 -311.39912376 202.52137743 -311.43166587 194.95149533 C-311.45536957 189.14050844 -311.45781058 183.32966038 -311.45243073 177.5186348 C-311.45352953 175.13946187 -311.4614643 172.76028054 -311.4768219 170.38115692 C-311.49679853 167.12633209 -311.49191053 163.8724316 -311.48101807 160.61758423 C-311.49266943 159.68175747 -311.5043208 158.7459307 -311.51632524 157.78174555 C-311.43659402 148.93391234 -308.80949894 141.06938775 -302.703125 134.53125 C-294.59497305 127.24135191 -286.54017868 125.69704111 -275.9140625 125.8046875 C-274.32868179 125.80893234 -274.32868179 125.80893234 -272.71127319 125.81326294 C-269.34906499 125.8244215 -265.98712714 125.84951841 -262.625 125.875 C-260.33984761 125.88503538 -258.05469102 125.89416025 -255.76953125 125.90234375 C-250.17959589 125.92434668 -244.58981727 125.95778127 -239 126 C-239.01571045 125.08935791 -239.0314209 124.17871582 -239.04760742 123.24047852 C-239.55301974 89.51007101 -239.55301974 89.51007101 -236 76 C-235.83371094 75.32727051 -235.66742188 74.65454102 -235.49609375 73.96142578 C-229.88819878 51.48311344 -219.2145193 31.43686482 -204 14 C-203.39414063 13.27296875 -202.78828125 12.5459375 -202.1640625 11.796875 C-198.14761073 7.03528965 -193.82299789 2.93582437 -189 -1 C-187.59621094 -2.16015625 -187.59621094 -2.16015625 -186.1640625 -3.34375 C-131.57301213 -47.47991235 -53.20863148 -44.56560505 0 0 Z M-190.34765625 24.9765625 C-204.53178277 40.20053758 -213.39023079 59.14969743 -219 79 C-219.51240234 80.78470703 -219.51240234 80.78470703 -220.03515625 82.60546875 C-224.61980903 102.15954597 -223.97836888 125.83254771 -218 145 C-217.75862305 145.7822998 -217.51724609 146.56459961 -217.26855469 147.37060547 C-211.80962757 164.51300993 -203.44539902 179.18723017 -192 193 C-190.99839844 194.23169922 -190.99839844 194.23169922 -189.9765625 195.48828125 C-184.93290365 201.44803323 -179.16883078 206.24167323 -173 211 C-172.14664063 211.680625 -171.29328125 212.36125 -170.4140625 213.0625 C-144.46822607 233.00884873 -110.16640265 240.84601231 -78.015625 236.78515625 C-52.8664226 233.12203542 -30.10951853 222.67066237 -11 206 C-10.29488281 205.42765625 -9.58976563 204.8553125 -8.86328125 204.265625 C-3.09011187 199.5019096 1.43062534 193.90244354 6 188 C6.68191406 187.14535156 7.36382812 186.29070312 8.06640625 185.41015625 C17.24354604 173.4673031 23.5100309 159.32401422 28 145 C28.21172852 144.32791504 28.42345703 143.65583008 28.64160156 142.96337891 C34.88163996 122.01326585 34.54127969 95.81825248 28 75 C27.75862305 74.21915039 27.51724609 73.43830078 27.26855469 72.63378906 C21.80998803 55.48908347 13.44680405 40.81446548 2 27 C1.33226562 26.17886719 0.66453125 25.35773438 -0.0234375 24.51171875 C-5.06709635 18.55196677 -10.83116922 13.75832677 -17 9 C-18.28003906 7.9790625 -18.28003906 7.9790625 -19.5859375 6.9375 C-72.67234719 -33.87367382 -145.72765101 -21.18344036 -190.34765625 24.9765625 Z M-290.9375 147.75 C-295.09742307 154.30503029 -295.28867771 160.40050399 -295.24050903 167.95310974 C-295.24221788 168.93914328 -295.24392673 169.92517682 -295.24568737 170.94109017 C-295.24897447 174.23611059 -295.2379913 177.53092615 -295.22705078 180.82592773 C-295.2264865 183.19146215 -295.22680356 185.55699692 -295.22793579 187.92253113 C-295.22850964 194.33929805 -295.21675001 200.7559902 -295.20278788 207.17273974 C-295.19059625 213.20080726 -295.18954114 219.22888308 -295.18748413 225.25696064 C-295.18311105 237.19370074 -295.16981245 249.13041344 -295.15087891 261.06713867 C-295.13251009 272.65991072 -295.11835849 284.25267532 -295.10986328 295.84545898 C-295.10933783 296.56049886 -295.10881239 297.27553873 -295.10827102 298.01224648 C-295.10566087 301.5995291 -295.10313347 305.18681176 -295.10064721 308.77409446 C-295.07992676 338.51608133 -295.04456269 368.25803891 -295 398 C-289.72 398 -284.44 398 -279 398 C-278.99641747 396.17972683 -278.99641747 396.17972683 -278.99276257 394.32268047 C-278.93543755 365.53446159 -278.86273189 336.74630913 -278.77101372 307.9581802 C-278.75974517 304.41702609 -278.74860678 300.87587157 -278.73754883 297.3347168 C-278.73534514 296.62971864 -278.73314146 295.92472049 -278.730871 295.19835875 C-278.69547146 283.7740447 -278.67062235 272.34973071 -278.64965298 260.9253821 C-278.62791204 249.20822503 -278.59487797 237.49113931 -278.55129844 225.7740429 C-278.52730503 219.19049246 -278.50861641 212.60702118 -278.50238609 206.02342796 C-278.49636286 199.832214 -278.47646353 193.64120279 -278.44572449 187.45006371 C-278.43689979 185.17279464 -278.43323077 182.89549913 -278.43499184 180.61821365 C-278.43663259 177.5186503 -278.420048 174.41971392 -278.39872742 171.32023621 C-278.40357499 170.41071093 -278.40842257 169.50118566 -278.41341704 168.56409901 C-278.39923223 167.32201726 -278.39923223 167.32201726 -278.38476086 166.05484295 C-278.38286225 165.33907013 -278.38096365 164.6232973 -278.37900752 163.8858344 C-277.88624801 161.43400219 -276.93551254 160.53533532 -275 159 C-272.96882629 158.60127258 -272.96882629 158.60127258 -270.62036133 158.56762695 C-269.73967484 158.54783279 -268.85898834 158.52803864 -267.95161438 158.50764465 C-267.00465195 158.50125473 -266.05768951 158.49486481 -265.08203125 158.48828125 C-264.10965012 158.47033005 -263.13726898 158.45237885 -262.13542175 158.43388367 C-259.02782536 158.37967533 -255.92038348 158.34585102 -252.8125 158.3125 C-250.70635866 158.27933624 -248.60023773 158.24484747 -246.49414062 158.20898438 C-241.32953839 158.12394269 -236.16498281 158.05718159 -231 158 C-231.64171445 155.51969902 -232.28815321 153.04080278 -232.9375 150.5625 C-233.21110352 149.50192383 -233.21110352 149.50192383 -233.49023438 148.41992188 C-234.18149374 144.92425139 -234.18149374 144.92425139 -236 142 C-239.07003242 141.87373994 -242.11624888 141.81126297 -245.1875 141.796875 C-246.58500488 141.78832489 -246.58500488 141.78832489 -248.01074219 141.77960205 C-249.99136209 141.77013074 -251.9719979 141.76360966 -253.95263672 141.75976562 C-256.95959872 141.75012947 -259.96585692 141.71915573 -262.97265625 141.6875 C-264.89843345 141.68096311 -266.82421554 141.67571534 -268.75 141.671875 C-269.64098389 141.6595282 -270.53196777 141.6471814 -271.44995117 141.63446045 C-278.40353753 141.6588114 -285.99718644 142.33237987 -290.9375 147.75 Z M46 142 C44.19695845 147.30094216 42.49276376 152.60308488 41 158 C42.31718018 158.01458252 43.63436035 158.02916504 44.99145508 158.04418945 C49.87259238 158.10210713 54.75326518 158.17934036 59.6340332 158.26245117 C61.74756336 158.29573128 63.86118306 158.32375353 65.97485352 158.34643555 C69.01096806 158.37992472 72.04625975 158.43223764 75.08203125 158.48828125 C76.02899368 158.49467117 76.97595612 158.5010611 77.95161438 158.50764465 C78.83230087 158.52743881 79.71298737 158.54723297 80.62036133 158.56762695 C81.39535477 158.57873001 82.17034821 158.58983307 82.96882629 158.60127258 C85.57123279 159.11213525 86.34605628 159.95372178 88 162 C88.37900752 163.8858344 88.37900752 163.8858344 88.38476086 166.05484295 C88.3942174 166.88289745 88.40367394 167.71095195 88.41341704 168.56409901 C88.40856947 169.47362429 88.40372189 170.38314956 88.39872742 171.32023621 C88.40537424 172.28651784 88.41202107 173.25279947 88.41886932 174.24836236 C88.43758763 177.50056019 88.43488807 180.75239297 88.43237305 184.00463867 C88.4413848 186.33018009 88.45171056 188.65571673 88.46325684 190.98124695 C88.49092174 197.30732624 88.50012423 203.63331565 88.50611091 209.95944762 C88.51452234 215.89699238 88.53664595 221.83447235 88.55872939 227.77197961 C88.6020258 239.5334342 88.63197622 251.2948835 88.65356445 263.05639648 C88.67456561 274.48252974 88.70183313 285.90861965 88.73754883 297.3347168 C88.73974765 298.03885958 88.74194648 298.74300237 88.74421193 299.46848281 C88.75528137 303.00091206 88.76647422 306.5333409 88.77772844 310.06576955 C88.87095391 339.37713851 88.9423113 368.68853963 89 398 C94.28 398 99.56 398 105 398 C105.06847358 367.57863153 105.1215475 337.15727104 105.15319599 306.7358431 C105.156948 303.14233603 105.16083098 299.54882911 105.16479492 295.95532227 C105.16558185 295.23993551 105.16636878 294.52454876 105.16717956 293.78748363 C105.18022484 282.21199104 105.20387384 270.63654327 105.23145839 259.06107724 C105.25953704 247.17895619 105.27618146 235.29685856 105.28226548 223.41470569 C105.2860084 216.74263003 105.29536625 210.07063584 105.31719017 203.398592 C105.33756983 197.11712873 105.34383072 190.83580875 105.33932304 184.55431557 C105.34014757 182.25051851 105.34610427 179.9467166 105.35761642 177.64294815 C105.3725834 174.49299663 105.36893797 171.34358323 105.36076355 168.19361877 C105.36950207 167.28600676 105.3782406 166.37839474 105.38724393 165.44327933 C105.34366632 159.21332656 104.76069417 152.44881518 100.72504205 147.40725046 C94.40906714 141.64917041 86.9411363 141.71302853 78.91015625 141.8046875 C77.96563095 141.8075174 77.02110565 141.81034729 76.04795837 141.81326294 C73.05267276 141.82439316 70.05769414 141.8494844 67.0625 141.875 C65.0227908 141.88503905 62.98307688 141.89416328 60.94335938 141.90234375 C55.9621226 141.92430904 50.98111322 141.95878924 46 142 Z M-263 174 C-263 247.92 -263 321.84 -263 398 C-225.85931148 397.73628713 -225.85931148 397.73628713 -188.72045898 397.30688477 C-181.46105957 397.3026123 -181.46105957 397.3026123 -178.03944397 397.31968689 C-175.70026563 397.31744195 -173.36098486 397.28622314 -171.0224762 397.23020935 C-153.3082203 396.83584199 -143.31125052 400.1554179 -129.02992249 410.58659363 C-122.73036891 415.10153653 -117.6650263 416.21164229 -109.875 415.9921875 C-108.67472168 416.00653839 -107.47444336 416.02088928 -106.23779297 416.03567505 C-103.74108836 416.04572342 -101.2439614 416.01917113 -98.74804688 415.95556641 C-94.99468955 415.87488585 -91.26817864 415.95515292 -87.515625 416.05078125 C-85.05202586 416.04086612 -82.58844302 416.02164117 -80.125 415.9921875 C-79.04718262 416.02255096 -77.96936523 416.05291443 -76.85888672 416.084198 C-68.85550051 415.73549813 -64.58117302 413.22416149 -58.21798801 408.57644939 C-43.89359571 398.13277634 -32.79524852 396.89923641 -15.37890625 397.31640625 C-13.09891406 397.31859439 -10.81890528 397.31398981 -8.53894043 397.3026123 C-0.21301104 397.30751246 8.11243558 397.4423889 16.4375 397.5625 C35.103125 397.706875 53.76875 397.85125 73 398 C73 324.08 73 250.16 73 174 C60.13 174 47.26 174 34 174 C31.03 179.28 28.06 184.56 25 190 C21.76786865 194.47525879 18.55283705 198.79743271 15 203 C14.56961426 203.51014648 14.13922852 204.02029297 13.69580078 204.54589844 C-4.76963388 226.14025547 -29.5774505 241.50411609 -57 249 C-57.7120459 249.19754883 -58.4240918 249.39509766 -59.15771484 249.59863281 C-82.28939034 255.70511531 -109.9991228 255.58180401 -133 249 C-133.82564453 248.76394043 -134.65128906 248.52788086 -135.50195312 248.28466797 C-152.64101192 243.18438397 -169.07875158 235.30840149 -183 224 C-183.76038574 223.39551025 -183.76038574 223.39551025 -184.53613281 222.77880859 C-201.7362097 209.06105081 -213.47067176 193.30376843 -224 174 C-236.87 174 -249.74 174 -263 174 Z M-325 414 C-323.69809057 424.0684432 -319.22166008 430.79084434 -311.41015625 437.24609375 C-299.15638984 446.16334029 -285.70341143 446.30076744 -271.05957031 446.25396729 C-269.47384117 446.25627581 -267.8881131 446.25945495 -266.30238724 446.26342177 C-261.97443295 446.27172461 -257.64656754 446.26766515 -253.31861305 446.26144934 C-248.63960816 446.25690729 -243.96061811 446.26391728 -239.28161621 446.26940918 C-230.12708469 446.27828615 -220.97258603 446.27638873 -211.81805325 446.2705839 C-204.37564767 446.26606074 -196.93325128 446.26545734 -189.49084473 446.26763153 C-188.43019656 446.267938 -187.3695484 446.26824446 -186.27675939 446.26856022 C-184.12183857 446.26919969 -181.96691775 446.26984812 -179.81199694 446.2705054 C-159.62183104 446.27620372 -139.43168332 446.26965861 -119.2415204 446.25890467 C-101.93053575 446.24996961 -84.61957792 446.25152179 -67.30859375 446.26074219 C-47.18894891 446.2714536 -27.06931999 446.27565445 -6.9496727 446.26951766 C-4.80283356 446.26888059 -2.65599442 446.26825184 -0.50915527 446.26763153 C0.54703467 446.26732298 1.60322462 446.26701443 2.69142032 446.26669653 C10.12188014 446.2649722 17.55232983 446.26787903 24.98278809 446.27259064 C34.04231881 446.27820915 43.10181489 446.27666262 52.16134167 446.26602915 C56.78053887 446.26078551 61.39967839 446.25869336 66.01887512 446.26532745 C70.25283214 446.27131614 74.48667834 446.26796392 78.7206254 446.25737235 C80.24671396 446.25515065 81.77281202 446.25624673 83.29889441 446.26112393 C100.35636366 446.3114274 113.89185003 444.67481448 126.7265625 432.609375 C131.3434465 427.31027103 135 421.11052277 135 414 C113.10219276 413.64796738 91.20485881 413.38429751 69.30478573 413.22281742 C59.13361877 413.14581018 48.96422028 413.04103212 38.79418945 412.8684082 C29.9190033 412.71783587 21.04509883 412.62188095 12.16867071 412.58867258 C7.47759511 412.56928942 2.79018243 412.52450473 -1.89970589 412.41404915 C-22.82762806 411.93980302 -37.07949974 412.20769753 -54.20506287 425.5789032 C-61.11002466 430.8812909 -67.7576453 431.19947082 -76.1875 430.9921875 C-77.71382069 431.00236817 -79.24011718 431.01698784 -80.76635742 431.03567505 C-83.92445474 431.05744968 -87.07607356 431.02686033 -90.23339844 430.95556641 C-94.20743033 430.87002013 -98.16627663 430.91943029 -102.13975525 431.00915337 C-105.27969257 431.06435007 -108.41624403 431.04568324 -111.55630493 431.00723648 C-113.01659119 430.99749627 -114.47722581 431.00853257 -115.93710327 431.04442978 C-125.31392023 431.2246189 -130.94275377 429.367365 -138.37395382 423.56527233 C-154.83618714 410.8754646 -170.98962977 412.01106123 -190.86193538 412.47909093 C-195.59272174 412.57414263 -200.32371915 412.58177027 -205.05531311 412.59947205 C-213.97718099 412.64572724 -222.89622598 412.76829744 -231.81686169 412.91971439 C-241.98850455 413.08854353 -252.16029664 413.17013756 -262.33299625 413.24514592 C-283.22356114 413.40109865 -304.11160137 413.66419479 -325 414 Z " transform="translate(351 42)" fill="#ffffff" class="color000 svgShape"></path><path d="M0 0 C4.87268175 3.53269427 8.5426983 7.04361077 10.5 12.8125 C11.76813541 22.2981529 10.17986201 28.25499765 4.5 35.8125 C3.83484375 36.74578125 3.1696875 37.6790625 2.484375 38.640625 C-2.01765094 44.82686208 -6.83181861 50.69426735 -11.86987305 56.44848633 C-15.27919886 60.28352867 -15.27919886 60.28352867 -17.5 64.8125 C-17.02287434 68.13965946 -17.02287434 68.13965946 -15.89111328 71.82495117 C-15.69633392 72.52308929 -15.50155457 73.22122742 -15.3008728 73.94052124 C-14.87617859 75.45537271 -14.4447956 76.96836123 -14.00754166 78.47963524 C-13.31395829 80.877436 -12.63807891 83.27961424 -11.96652222 85.68367004 C-10.5354207 90.79372365 -9.08098142 95.89699017 -7.625 101 C-5.94468026 106.89823114 -4.27410239 112.79900713 -2.62151718 118.7050724 C-1.95771261 121.06145075 -1.27962658 123.4133926 -0.60061646 125.76542664 C4.28938356 142.96524448 4.28938356 142.96524448 0.87939453 150.296875 C0.13802246 151.37453125 -0.60334961 152.4521875 -1.3671875 153.5625 C-1.76197296 154.14668701 -2.15675842 154.73087402 -2.56350708 155.33276367 C-3.81499776 157.17325106 -5.09456463 158.99206963 -6.375 160.8125 C-7.22707027 162.06257037 -8.07734837 163.3138643 -8.92578125 164.56640625 C-15.12179453 173.62339726 -15.12179453 173.62339726 -17.5 174.8125 C-23.24659864 175.27593537 -23.24659864 175.27593537 -25.5 174.8125 C-28.95985428 171.85753035 -30.79069698 168.7181438 -32.79980469 164.66699219 C-33.10274948 164.06168671 -33.40569427 163.45638123 -33.71781921 162.83273315 C-34.71014354 160.84531375 -35.69103502 158.85248371 -36.671875 156.859375 C-37.36048547 155.47468817 -38.04980663 154.09035456 -38.73980713 152.70635986 C-40.54867302 149.0733996 -42.34787507 145.43573667 -44.14508057 141.79699707 C-45.98281488 138.0805162 -47.82968424 134.36858186 -49.67578125 130.65625 C-53.29279076 123.37940916 -56.89959976 116.09757288 -60.5 108.8125 C-66.23859867 108.8125 -72.412249 116.27958909 -76.50854492 120.14379883 C-80.52163929 124.24910975 -83.29060524 127.76800359 -83.89697266 133.68847656 C-83.48012032 141.85884417 -80.83597466 149.6833803 -78.41186523 157.43481445 C-77.21225308 161.87835775 -76.55455147 166.26286739 -77.5 170.8125 C-79.44777305 173.95222626 -81.82152386 176.28078968 -84.5 178.8125 C-85.45162668 179.77760581 -86.39931192 180.7466084 -87.34375 181.71875 C-96.25985089 190.84298608 -96.25985089 190.84298608 -103.4296875 191.23828125 C-106.54617891 190.59734245 -107.42358079 189.26638702 -109.5 186.8125 C-111.39844024 183.57841185 -113.04726712 180.23056962 -114.703125 176.8671875 C-115.1857782 175.90096466 -115.6684314 174.93474182 -116.16571045 173.9392395 C-117.18132841 171.90197416 -118.19306717 169.86277093 -119.20117188 167.82177734 C-120.74989714 164.68770815 -122.31141544 161.5602718 -123.875 158.43359375 C-124.86013256 156.45350172 -125.84453319 154.47304533 -126.828125 152.4921875 C-127.29679993 151.552612 -127.76547485 150.6130365 -128.24835205 149.64498901 C-128.67589783 148.77713776 -129.1034436 147.9092865 -129.54394531 147.01513672 C-130.11208954 145.86741287 -130.11208954 145.86741287 -130.69171143 144.69650269 C-131.5 142.8125 -131.5 142.8125 -131.5 140.8125 C-132.68480957 140.46239868 -132.68480957 140.46239868 -133.89355469 140.10522461 C-138.51455506 138.44883435 -142.81421412 136.31782077 -147.203125 134.12890625 C-148.12212585 133.67273422 -149.04112671 133.21656219 -149.98797607 132.74656677 C-151.92206944 131.78456653 -153.85509481 130.82041644 -155.78710938 129.85424805 C-158.74963627 128.37518159 -161.71833331 126.90904177 -164.6875 125.44335938 C-166.56809917 124.50599204 -168.44832094 123.56786708 -170.328125 122.62890625 C-171.66245575 121.97251915 -171.66245575 121.97251915 -173.02374268 121.3028717 C-173.84509705 120.88911789 -174.66645142 120.47536407 -175.51269531 120.04907227 C-176.23628235 119.68870377 -176.95986938 119.32833527 -177.7053833 118.95704651 C-179.5 117.8125 -179.5 117.8125 -181.5 114.8125 C-182.10112955 110.87176184 -182.44129217 108.33976213 -180.3203125 104.8984375 C-178.47554212 102.75356093 -176.52497108 100.78892725 -174.5 98.8125 C-173.55009728 97.84308794 -172.6023011 96.87160873 -171.65625 95.8984375 C-162.61672346 86.66869899 -162.61672346 86.66869899 -157.296875 86.4765625 C-152.69029524 86.50463127 -148.89111873 87.4883986 -144.515625 88.8984375 C-131.68134941 93.36061159 -131.68134941 93.36061159 -118.67144775 92.01074219 C-110.37322553 86.93593471 -104.11711481 78.58866245 -98.5 70.8125 C-108.70925596 65.36038536 -118.97087724 60.03713382 -129.34765625 54.91015625 C-130.34735443 54.41542816 -131.34705261 53.92070007 -132.37704468 53.41098022 C-136.49542315 51.37437593 -140.6148266 49.33998845 -144.73950195 47.31616211 C-147.79998285 45.81298778 -150.85540234 44.29992737 -153.91015625 42.78515625 C-155.31455711 42.10079247 -155.31455711 42.10079247 -156.74732971 41.40260315 C-157.6068071 40.97462936 -158.46628448 40.54665558 -159.35180664 40.10571289 C-160.10724258 39.73394424 -160.86267853 39.3621756 -161.64100647 38.97914124 C-163.5 37.8125 -163.5 37.8125 -165.5 34.8125 C-166.13114754 29.22233607 -166.13114754 29.22233607 -165.5 26.8125 C-161.13717614 21.38466132 -154.99614135 17.81494136 -149.25 14 C-148.25097656 13.30712891 -147.25195312 12.61425781 -146.22265625 11.90039062 C-145.23652344 11.24619141 -144.25039062 10.59199219 -143.234375 9.91796875 C-142.34975586 9.32137451 -141.46513672 8.72478027 -140.55371094 8.11010742 C-131.8462259 4.41005282 -122.75909593 8.09258464 -114.15138817 10.57754898 C-111.75412403 11.26901689 -109.3529757 11.94509679 -106.95027161 12.61740112 C-100.992068 14.28758958 -95.04048776 15.98083167 -89.09008789 17.67858887 C-84.04307911 19.11825002 -78.99316166 20.54658663 -73.93834877 21.95861435 C-71.57296371 22.62437019 -69.21280876 23.30682703 -66.8523407 23.98977661 C-65.40595902 24.39527507 -63.95934144 24.79993334 -62.51245117 25.20361328 C-61.2516423 25.56335236 -59.99083344 25.92309143 -58.69181824 26.29373169 C-55.30816835 26.84367852 -54.23137888 26.76986678 -51.5 24.8125 C-50.04958559 23.55884723 -48.63675903 22.26122453 -47.25 20.9375 C-40.41290309 14.67775794 -33.03887268 9.19445194 -25.5 3.8125 C-24.65179688 3.19375 -23.80359375 2.575 -22.9296875 1.9375 C-15.99395562 -2.56688676 -7.71959044 -2.61914676 0 0 Z M-18.1875 19.8125 C-18.71150391 20.22258301 -19.23550781 20.63266602 -19.77539062 21.05517578 C-21.35802865 22.29778643 -22.92914459 23.55502729 -24.5 24.8125 C-25.35207031 25.46992187 -26.20414063 26.12734375 -27.08203125 26.8046875 C-38.81014739 35.93708165 -49.28481851 46.4577352 -59.74536514 56.98270035 C-61.86993014 59.12023299 -63.99778269 61.25444636 -66.12643433 63.38790894 C-70.62881448 67.90159559 -75.12718222 72.41926762 -79.625 76.9375 C-84.87606545 82.21219698 -90.12877881 87.48523194 -95.38567734 92.75411606 C-97.48281385 94.85773656 -99.57692236 96.96433996 -101.67092896 99.07107544 C-102.94600005 100.34977591 -104.22120999 101.62833797 -105.49658203 102.90673828 C-106.07833694 103.49365952 -106.66009186 104.08058075 -107.25947571 104.68528748 C-110.80073731 108.22701805 -112.61360114 109.96058099 -117.6171875 110.0625 C-125.09301141 109.98717684 -132.33311503 108.30973132 -139.625 106.8125 C-141.0727417 106.52256248 -142.5206576 106.23349334 -143.96875 105.9453125 C-147.48122978 105.24436667 -150.99121229 104.53172815 -154.5 103.8125 C-155.82 105.4625 -157.14 107.1125 -158.5 108.8125 C-156.5887376 109.82866892 -154.67673935 110.84347051 -152.76171875 111.85253906 C-151.05392924 112.76021724 -149.3535856 113.68201518 -147.66015625 114.61621094 C-143.31715515 116.97633088 -139.21411705 119.00610389 -134.453125 120.3671875 C-122.9935241 124.05030864 -118.12623897 130.07319808 -112.6673584 140.46508789 C-108.29207291 149.09978925 -104.31187716 157.91681542 -100.5 166.8125 C-97.47652186 167.14830136 -97.47652186 167.14830136 -95.7487793 165.22509766 C-93.98769964 161.82275374 -94.67588131 159.91383544 -95.51953125 156.2109375 C-95.65695236 155.57443268 -95.79437347 154.93792786 -95.93595886 154.28213501 C-96.37756416 152.24632353 -96.84308207 150.21706349 -97.3125 148.1875 C-101.74483752 128.66259374 -101.74483752 128.66259374 -100.5 122.8125 C-95.52936889 115.06747109 -87.33052168 108.54345254 -80.81204605 102.07994652 C-78.65549148 99.94097235 -76.50266152 97.79831175 -74.35079956 95.65461731 C-68.23670344 89.5648041 -62.11698995 83.48065986 -55.99267578 77.40112305 C-52.23255397 73.66797931 -48.47747881 69.92981834 -44.72533798 66.18865395 C-43.30567125 64.77514032 -41.88411755 63.36351896 -40.46054459 61.95393944 C-32.66348958 54.23285169 -25.20193177 46.52335757 -18.5 37.8125 C-18.01460754 37.18631775 -17.52921509 36.5601355 -17.02911377 35.91497803 C-15.87952148 34.4129302 -14.75096177 32.89484217 -13.625 31.375 C-12.90570313 30.40691406 -12.18640625 29.43882813 -11.4453125 28.44140625 C-10.80335938 27.57386719 -10.16140625 26.70632812 -9.5 25.8125 C-8.92507813 25.09320313 -8.35015625 24.37390625 -7.7578125 23.6328125 C-6.10853198 21.24596553 -6.19308566 19.65145764 -6.5 16.8125 C-7.52932105 15.58284866 -7.52932105 15.58284866 -9.70703125 15.5 C-13.47932227 15.92207452 -15.22297754 17.46937944 -18.1875 19.8125 Z M-136.0625 26.1875 C-136.70316406 26.62835938 -137.34382813 27.06921875 -138.00390625 27.5234375 C-138.49761719 27.94882813 -138.99132812 28.37421875 -139.5 28.8125 C-139.5 29.4725 -139.5 30.1325 -139.5 30.8125 C-121.68 39.7225 -103.86 48.6325 -85.5 57.8125 C-81.13329996 54.06961426 -77.06858559 50.49846348 -73.0625 46.4375 C-71.76505859 45.12652344 -71.76505859 45.12652344 -70.44140625 43.7890625 C-69.80074219 43.13679688 -69.16007812 42.48453125 -68.5 41.8125 C-71.6961037 40.06392899 -74.84152667 39.06518469 -78.35424805 38.11669922 C-79.5319426 37.79651825 -80.70963715 37.47633728 -81.92301941 37.14645386 C-83.18979019 36.80679596 -84.45656097 36.46713806 -85.76171875 36.1171875 C-87.07649173 35.76165829 -88.39117249 35.40578786 -89.70576477 35.04959106 C-92.4546004 34.3056983 -95.2041633 33.56458152 -97.9543457 32.82568359 C-101.48632926 31.87670414 -105.01698596 30.92289985 -108.54718304 29.96729851 C-111.90991058 29.05725599 -115.27329236 28.14964304 -118.63671875 27.2421875 C-119.90956223 26.89848114 -121.1824057 26.55477478 -122.49382019 26.20065308 C-123.66205826 25.88677643 -124.83029633 25.57289978 -126.03393555 25.24951172 C-127.06777878 24.97130585 -128.10162201 24.69309998 -129.16679382 24.40646362 C-132.62622354 23.5257976 -133.1411327 24.14549376 -136.0625 26.1875 Z M-35.10400391 80.18945312 C-35.72194824 80.81787109 -36.33989258 81.44628906 -36.9765625 82.09375 C-37.646875 82.77050781 -38.3171875 83.44726562 -39.0078125 84.14453125 C-40.05582031 85.21767578 -40.05582031 85.21767578 -41.125 86.3125 C-41.83140625 87.02792969 -42.5378125 87.74335938 -43.265625 88.48046875 C-45.01495593 90.25343929 -46.75946536 92.03090011 -48.5 93.8125 C-39.93013446 112.35548392 -30.67288421 130.56316333 -21.5 148.8125 C-18.08021954 147.67257318 -16.76773475 146.39108666 -15.08337402 143.21481323 C-13.7318602 137.64932797 -16.23716117 131.90865351 -17.828125 126.56640625 C-18.21739114 125.18703203 -18.60421716 123.80696706 -18.9887085 122.42625427 C-20.00353729 118.80724557 -21.0510983 115.19853342 -22.105896 111.59100342 C-23.17787139 107.90293266 -24.218433 104.20603328 -25.26171875 100.50976562 C-27.31060328 93.26836894 -29.39416829 86.03756748 -31.5 78.8125 C-33.59940431 78.59537939 -33.59940431 78.59537939 -35.10400391 80.18945312 Z " transform="translate(333.5 65.188)" fill="#ffffff" class="color000 svgShape"></path><path d="M0 0 C1.55487373 -0.01564648 1.55487373 -0.01564648 3.14115906 -0.03160906 C4.27849991 -0.02268617 5.41584076 -0.01376328 6.58764648 -0.00457001 C8.40163689 -0.01392995 8.40163689 -0.01392995 10.25227356 -0.02347898 C13.61069497 -0.0366909 16.96822396 -0.03191306 20.32659149 -0.01953411 C23.94765828 -0.01049813 27.56864608 -0.02444609 31.18969727 -0.0354538 C38.28392102 -0.05325923 45.37797568 -0.04939009 52.47220612 -0.03780323 C58.2367746 -0.02877711 64.00129562 -0.02754134 69.76586914 -0.0318985 C70.99558425 -0.0328179 70.99558425 -0.0328179 72.2501421 -0.03375587 C73.91546505 -0.03503474 75.58078799 -0.0363316 77.24611092 -0.03764623 C92.869301 -0.04905796 108.49239727 -0.03592906 124.11557198 -0.01444477 C137.52688339 0.00342676 150.93805632 0.00032282 164.34936523 -0.01811981 C179.91587098 -0.03951609 195.48229447 -0.04795927 211.04881287 -0.03567076 C212.70807901 -0.03439653 214.36734516 -0.03313905 216.02661133 -0.0318985 C216.84304517 -0.0312814 217.65947901 -0.03066429 218.50065327 -0.03002849 C224.25965153 -0.02657186 230.0185977 -0.03241067 235.77758789 -0.04181671 C242.7939737 -0.0530243 249.81018047 -0.05002293 256.82654572 -0.02869374 C260.40784054 -0.01816643 263.98883664 -0.01408969 267.57012939 -0.02729034 C271.44853395 -0.04137015 275.32644715 -0.02458196 279.20483398 -0.00457001 C280.91084526 -0.01795434 280.91084526 -0.01795434 282.65132141 -0.03160906 C283.6879039 -0.02117807 284.72448639 -0.01074708 285.79248047 0 C286.68797104 0.00064941 287.58346161 0.00129882 288.50608826 0.00196791 C291.67039063 0.66576278 292.88158165 2.03266193 294.89624023 4.50336456 C295.3996048 6.60858917 295.3996048 6.60858917 295.4041748 8.90570831 C295.42109375 10.21789337 295.42109375 10.21789337 295.43835449 11.55658722 C295.42620911 12.9843045 295.42620911 12.9843045 295.41381836 14.44086456 C295.42433228 15.95365997 295.42433228 15.95365997 295.43505859 17.49701691 C295.45267242 20.83274571 295.44100333 24.16762704 295.42749023 27.50336456 C295.43018416 29.81977247 295.43406575 32.13617928 295.43908691 34.45258331 C295.44498658 39.30816154 295.43640361 44.16344552 295.41772461 49.01898956 C295.39493519 55.24701102 295.40805571 61.47434302 295.43201447 67.70233917 C295.44645956 72.48583941 295.44187229 77.26917583 295.4315033 82.05268097 C295.42883246 84.34923128 295.43211823 86.64579639 295.44142151 88.94232941 C295.4515655 92.15057597 295.43611507 95.35770162 295.41381836 98.56586456 C295.42191528 99.51767609 295.43001221 100.46948761 295.43835449 101.45014191 C295.4270752 102.32493195 295.4157959 103.19972198 295.4041748 104.10102081 C295.40191265 105.23809479 295.40191265 105.23809479 295.3996048 106.39813995 C294.68153104 109.40134408 293.24977692 110.54865513 290.89624023 112.50336456 C288.50608826 113.00476122 288.50608826 113.00476122 285.79248047 113.00672913 C284.23760674 113.02237561 284.23760674 113.02237561 282.65132141 113.03833818 C281.51398056 113.0294153 280.37663971 113.02049241 279.20483398 113.01129913 C277.39084358 113.02065908 277.39084358 113.02065908 275.54020691 113.03020811 C272.1817855 113.04342003 268.82425651 113.03864218 265.46588898 113.02626324 C261.84482218 113.01722725 258.22383439 113.03117522 254.6027832 113.04218292 C247.50855945 113.05998835 240.41450478 113.05611922 233.32027435 113.04453236 C227.55570587 113.03550624 221.79118484 113.03427047 216.02661133 113.03862762 C214.79689621 113.03954702 214.79689621 113.03954702 213.54233837 113.04048499 C211.87701542 113.04176387 210.21169248 113.04306072 208.54636955 113.04437536 C192.92317947 113.05578708 177.30008319 113.04265819 161.67690849 113.02117389 C148.26559708 113.00330236 134.85442415 113.0064063 121.44311523 113.02484894 C105.87660948 113.04624522 90.310186 113.05468839 74.7436676 113.04239988 C73.08440146 113.04112566 71.42513531 113.03986818 69.76586914 113.03862762 C68.9494353 113.03801052 68.13300146 113.03739342 67.2918272 113.03675762 C61.53282894 113.03330098 55.77388277 113.0391398 50.01489258 113.04854584 C42.99850677 113.05975342 35.9823 113.05675205 28.96593475 113.03542286 C25.38463993 113.02489556 21.80364383 113.02081882 18.22235107 113.03401947 C14.34394652 113.04809928 10.46603332 113.03131108 6.58764648 113.01129913 C4.88163521 113.02468346 4.88163521 113.02468346 3.14115906 113.03833818 C2.10457657 113.0279072 1.06799408 113.01747621 0 113.00672913 C-0.89549057 113.00607972 -1.79098114 113.00543031 -2.71360779 113.00476122 C-5.87791016 112.34096635 -7.08910119 110.97406719 -9.10375977 108.50336456 C-9.60712433 106.39813995 -9.60712433 106.39813995 -9.61169434 104.10102081 C-9.62297363 103.22623077 -9.63425293 102.35144073 -9.64587402 101.45014191 C-9.6377771 100.49833038 -9.62968018 99.54651886 -9.62133789 98.56586456 C-9.62834717 97.55733429 -9.63535645 96.54880402 -9.64257812 95.50971222 C-9.66019195 92.17398342 -9.64852287 88.83910208 -9.63500977 85.50336456 C-9.63770369 83.18695665 -9.64158528 80.87054985 -9.64660645 78.55414581 C-9.65250611 73.69856758 -9.64392315 68.84328361 -9.62524414 63.98773956 C-9.60245473 57.7597181 -9.61557525 51.53238611 -9.639534 45.30438995 C-9.65397909 40.52088972 -9.64939182 35.73755329 -9.63902283 30.95404816 C-9.63635199 28.65749785 -9.63963777 26.36093273 -9.64894104 24.06439972 C-9.65908504 20.85615316 -9.6436346 17.6490275 -9.62133789 14.44086456 C-9.62943481 13.48905304 -9.63753174 12.53724152 -9.64587402 11.55658722 C-9.63459473 10.68179718 -9.62331543 9.80700714 -9.61169434 8.90570831 C-9.61018623 8.147659 -9.60867813 7.38960968 -9.60712433 6.60858917 C-8.39945003 1.55772578 -4.82369875 0.00349814 0 0 Z M6.89624023 16.50336456 C6.89624023 42.90336456 6.89624023 69.30336456 6.89624023 96.50336456 C72.89624023 96.50336456 138.89624023 96.50336456 206.89624023 96.50336456 C206.89624023 70.10336456 206.89624023 43.70336456 206.89624023 16.50336456 C140.89624023 16.50336456 74.89624023 16.50336456 6.89624023 16.50336456 Z M222.89624023 16.50336456 C222.89624023 42.90336456 222.89624023 69.30336456 222.89624023 96.50336456 C241.37624023 96.50336456 259.85624023 96.50336456 278.89624023 96.50336456 C278.89624023 91.22336456 278.89624023 85.94336456 278.89624023 80.50336456 C265.69624023 80.50336456 252.49624023 80.50336456 238.89624023 80.50336456 C238.89624023 75.22336456 238.89624023 69.94336456 238.89624023 64.50336456 C252.09624023 64.50336456 265.29624023 64.50336456 278.89624023 64.50336456 C278.89624023 59.22336456 278.89624023 53.94336456 278.89624023 48.50336456 C270.97624023 48.50336456 263.05624023 48.50336456 254.89624023 48.50336456 C254.89624023 43.22336456 254.89624023 37.94336456 254.89624023 32.50336456 C262.81624023 32.50336456 270.73624023 32.50336456 278.89624023 32.50336456 C278.89624023 27.22336456 278.89624023 21.94336456 278.89624023 16.50336456 C260.41624023 16.50336456 241.93624023 16.50336456 222.89624023 16.50336456 Z " transform="translate(113.104 311.497)" fill="#ffffff" class="color000 svgShape"></path><path d="M0 0 C34.32 0 68.64 0 104 0 C104 5.28 104 10.56 104 16 C69.68 16 35.36 16 0 16 C0 10.72 0 5.44 0 0 Z " transform="translate(136 376)" fill="#ffffff" class="color000 svgShape"></path><path d="M0 0 C21.12 0 42.24 0 64 0 C64 5.28 64 10.56 64 16 C42.88 16 21.76 16 0 16 C0 10.72 0 5.44 0 0 Z " transform="translate(136 344)" fill="#ffffff" class="color000 svgShape"></path></svg></g></svg>